<?xml version="1.0" standalone="no"?>
<!DOCTYPE svg PUBLIC "-//W3C//DTD SVG 1.1//EN" "http://www.w3.org/Graphics/SVG/1.1/DTD/svg11.dtd" >
<svg xmlns="http://www.w3.org/2000/svg">
<metadata></metadata>
<defs>
<font id="sakkal_majallaregular" horiz-adv-x="1095" >
<font-face units-per-em="2048" ascent="1395" descent="-653" />
<missing-glyph horiz-adv-x="409" />
<glyph horiz-adv-x="0" />
<glyph unicode="&#xd;" horiz-adv-x="545" />
<glyph unicode=" "  horiz-adv-x="409" />
<glyph unicode="&#x09;" horiz-adv-x="409" />
<glyph unicode="&#xa0;" horiz-adv-x="409" />
<glyph unicode="!" horiz-adv-x="495" d="M108 98l139 138l140 -138l-140 -139zM148 1350h193l-45 -986h-103z" />
<glyph unicode="&#x22;" horiz-adv-x="699" d="M108 1501h167l-35 -438h-97zM425 1501h166l-34 -438h-98z" />
<glyph unicode="#" horiz-adv-x="1211" d="M79 389l20 113h259l71 341h-272l23 114h270l83 393h93l-83 -393h241l86 393h88l-83 -393h258l-24 -114h-254l-74 -341h271l-22 -113h-268l-87 -389h-93l85 389h-241l-81 -389h-92l82 389h-256zM447 502h243l74 341h-243z" />
<glyph unicode="$" horiz-adv-x="984" d="M77 69l73 159q26 -21 62 -43.5t78.5 -41t88 -31t90.5 -13.5v521q-64 27 -126 58t-111.5 76.5t-80 111.5t-30.5 161q0 55 23.5 112t68 105t108.5 83t148 47v129h77v-122h4q82 0 153.5 -9.5t142.5 -23.5l-41 -160q-62 22 -128.5 38.5t-130.5 23.5v-446q65 -29 130 -62 t116 -82t83.5 -117t32.5 -167q0 -67 -23.5 -131t-70 -116t-113.5 -89t-155 -51v-150h-77v144q-6 0 -10.5 -0.5t-8.5 -0.5q-115 0 -204.5 21t-168.5 66zM275 1061q0 -42 15 -74.5t41.5 -58.5t61.5 -47.5t76 -40.5v413q-49 -3 -85.5 -10t-54.5 -22q-12 -9 -22 -21t-17.5 -30.5 t-11 -45t-3.5 -63.5zM546 102q44 4 76.5 13.5t58.5 24.5q16 9 29 23.5t23 39t15.5 60t5.5 85.5q0 48 -16.5 84.5t-45 64t-66 49.5t-80.5 41v-485z" />
<glyph unicode="%" horiz-adv-x="1617" d="M54 999q0 164 83 259t246 95q162 0 244.5 -91t82.5 -260q0 -165 -82.5 -259.5t-244.5 -94.5q-160 0 -244.5 89t-84.5 262zM209 1001q0 -74 8.5 -126.5t27.5 -85.5t51.5 -48t79.5 -15h3q33 0 62 6.5t55 25.5q16 12 28 35.5t18.5 56.5t10 71.5t3.5 77.5q0 144 -38 209.5 t-133 65.5q-33 0 -62 -6.5t-55 -25.5q-16 -12 -28 -35.5t-18.5 -56.5t-9.5 -71.5t-3 -77.5zM374 0l768 1399l92 -47l-769 -1400zM907 351q0 164 83 259t246 95q162 0 244.5 -91t82.5 -260q0 -165 -82.5 -259.5t-244.5 -94.5q-160 0 -244.5 89t-84.5 262zM1061 352 q0 -73 8.5 -125.5t28 -85.5t51.5 -48t80 -15h3q33 0 62 6.5t55 25.5q16 11 28 35t18.5 57t9.5 71.5t3 77.5q0 144 -37.5 209.5t-132.5 65.5q-33 0 -62 -7t-55 -25q-16 -12 -28 -35.5t-18.5 -56.5t-10 -71.5t-3.5 -78.5z" />
<glyph unicode="&#x26;" horiz-adv-x="1379" d="M81 350q0 134 69 229.5t210 170.5q-52 71 -80 141t-28 156q0 67 24.5 124t68.5 98.5t105.5 65t135.5 23.5q85 0 144 -19.5t97 -53.5t55 -78t17 -93q0 -61 -24.5 -110.5t-68 -93t-103.5 -82.5t-131 -76q37 -47 81.5 -100t93.5 -107.5t100.5 -109.5t104.5 -105 q59 73 83.5 165t24.5 180q0 22 -4 49t-9 43l153 33q6 -19 10 -48t4 -55q0 -112 -51.5 -221t-144.5 -208q99 -87 188.5 -143t159.5 -56h13v-60q-29 -10 -73.5 -17t-91.5 -7q-75 0 -157.5 45t-168.5 119q-103 -78 -211.5 -119.5t-221.5 -41.5q-93 0 -163 29t-117 78.5 t-70.5 115t-23.5 139.5zM271 385q0 -63 19 -113t52.5 -84.5t80 -52.5t101.5 -18q86 0 158 24t138 70q-54 52 -107.5 110t-104 116.5t-96.5 116.5t-87 111q-45 -31 -74.5 -62t-47.5 -65t-25 -71.5t-7 -81.5zM404 1076q0 -61 23.5 -114t68.5 -112q4 -7 9 -12t8 -12 q72 37 119.5 69t76 63.5t41 68t12.5 83.5q0 79 -46.5 122.5t-122.5 43.5q-33 0 -67 -10.5t-61 -34t-44 -62t-17 -93.5z" />
<glyph unicode="'" horiz-adv-x="382" d="M108 1501h167l-35 -438h-97z" />
<glyph unicode="(" horiz-adv-x="652" d="M147 578q0 137 21.5 271t70.5 262t125 247.5t185 226.5l79 -70q-166 -202 -246.5 -435t-80.5 -501q0 -530 329 -924l-90 -71q-106 111 -180.5 228.5t-122 242.5t-69 255.5t-21.5 267.5z" />
<glyph unicode=")" horiz-adv-x="652" d="M25 -345q329 394 329 924q0 268 -80.5 501t-247.5 435l80 70q108 -107 184.5 -226.5t125.5 -247.5t70.5 -262t21.5 -271t-21.5 -267.5t-69 -255.5t-122.5 -242.5t-180 -228.5z" />
<glyph unicode="*" horiz-adv-x="901" d="M77 915l302 183l-301 144l66 115l273 -190l-37 334h145l-37 -334l274 190l66 -115l-301 -144l302 -183l-75 -110l-266 215l37 -335h-145l37 335l-265 -215z" />
<glyph unicode="+" horiz-adv-x="1085" d="M66 579v102h426v446h101v-446h426v-102h-426v-444h-101v444h-426z" />
<glyph unicode="," horiz-adv-x="409" d="M40 -214l159 457l157 -62l-239 -424z" />
<glyph unicode="-" horiz-adv-x="644" d="M66 405l13 140h499l-13 -140h-499z" />
<glyph unicode="." horiz-adv-x="442" d="M95 98l125 125l127 -125l-127 -126z" />
<glyph unicode="/" horiz-adv-x="802" d="M-18 -251l744 1818l95 -41l-748 -1815z" />
<glyph unicode="0" d="M79 675q0 159 25 288t80.5 218.5t144.5 138t219 48.5q128 0 217 -46t145 -134t81 -216.5t25 -293.5q0 -161 -25 -289.5t-81 -218t-145 -138t-217 -48.5q-127 0 -215.5 45t-145 132t-82.5 216t-26 298zM264 676q0 -145 14.5 -256t47 -187.5t86.5 -115.5t133 -39 q56 0 103.5 12t93.5 45q28 19 45.5 65t27 115t12.5 159.5t3 200.5q0 141 -15 252.5t-48 188.5t-86.5 117.5t-128.5 40.5q-56 0 -106 -14t-92 -44q-29 -20 -46.5 -64.5t-27 -112t-13 -159t-3.5 -204.5z" />
<glyph unicode="1" d="M132 998l503 354h116v-1352h-183v1199l-378 -282z" />
<glyph unicode="2" d="M123 0v66l410 488q82 95 134 205.5t52 223.5q0 64 -19.5 109.5t-54 75t-82.5 43.5t-105 14q-74 0 -157 -14.5t-157 -40.5l29 153q28 9 66 17.5t79.5 14.5t82.5 9.5t76 3.5q96 0 174.5 -20.5t134 -62.5t86 -104.5t30.5 -146.5q0 -72 -21.5 -135t-58.5 -125.5t-87 -124.5 t-107 -130l-307 -370q34 0 82 0.5t103.5 1.5t114.5 1.5t116 1.5q132 3 277 7l-46 -161h-845z" />
<glyph unicode="3" d="M77 69l62 166q26 -22 66.5 -46t88 -44t97.5 -33t96 -13q122 0 188 42q18 12 35 28t30.5 43.5t21.5 69t8 105.5q0 100 -34.5 160t-86.5 92t-116 41t-124 9v71q159 11 234 80t75 184q0 102 -68.5 151.5t-182.5 49.5q-74 0 -146.5 -12t-146.5 -38l32 157q57 18 128 27t139 9 q96 0 175 -18.5t135.5 -58.5t86.5 -101t30 -146q0 -69 -27 -121t-66.5 -89.5t-82.5 -60t-75 -31.5v-4q53 -8 108 -30t100 -59.5t72.5 -92t27.5 -130.5q0 -87 -40.5 -167.5t-106.5 -142t-152 -98t-178 -36.5q-120 0 -222 21t-181 66z" />
<glyph unicode="4" d="M71 385v136l593 837h178v-829h213l-35 -136l-178 -6v-387h-183v380h-62.5t-84 0.5t-96 1.5t-99.5 1q-115 1 -246 2zM187 529h472v666z" />
<glyph unicode="5" d="M106 61l74 159q26 -22 62.5 -43t78 -39t87.5 -28.5t92 -10.5q36 0 63 2.5t49 7.5t39.5 12t34.5 16q16 10 36 24.5t37.5 42t30.5 72.5t13 115q0 78 -38.5 139t-108.5 103.5t-167.5 64t-215.5 21.5h-84l30 631q34 0 81.5 1t102 1.5t112 1t111.5 2.5q128 2 268 6l-33 -159 h-560l-17 -345q6 1 24 1h31q168 0 286 -37t193.5 -96t109.5 -132.5t34 -146.5q0 -79 -35 -162t-99 -150.5t-152.5 -110t-195.5 -42.5q-105 0 -200 17t-174 62z" />
<glyph unicode="6" d="M106 657q0 194 35 329.5t101 219.5t161 122t216 38q82 0 153 -9t143 -24l-41 -160q-75 27 -159.5 46t-170.5 19q-110 0 -152 -34q-46 -37 -74.5 -154t-28.5 -308q54 46 137.5 79t182.5 33q92 0 166 -25t126 -76t80.5 -129t28.5 -182q0 -101 -30 -185t-85 -145t-135 -94 t-181 -33q-117 0 -206 46t-148.5 132t-89 211t-29.5 283zM289 669q0 -111 11.5 -217t42.5 -189t86 -134t145 -51q60 0 100.5 13t69.5 36q31 25 56 99t25 211q0 158 -65.5 226t-191.5 68q-81 0 -153 -16.5t-126 -45.5z" />
<glyph unicode="7" d="M102 1192l33 160h856v-89l-621 -1263h-124l609 1204q-35 0 -86 -0.5t-110.5 -2t-123.5 -2t-126 -2.5q-145 -2 -307 -5z" />
<glyph unicode="8" d="M110 359q0 59 19 112.5t51.5 97t76.5 76t94 49.5q-42 16 -81 46t-68 70t-46 89.5t-17 106.5q0 166 101 262.5t297 96.5q197 0 297.5 -93t100.5 -264q0 -54 -16.5 -102t-45 -88.5t-65.5 -70t-78 -46.5q53 -16 99 -47.5t81 -76t55 -99t20 -116.5q0 -177 -111 -278 t-326 -101q-213 0 -325.5 95.5t-112.5 280.5zM298 360q0 -147 57 -217t190 -70q54 0 93.5 7.5t79.5 30.5q46 25 62 93.5t16 154.5q0 145 -59 218.5t-187 73.5q-52 0 -94 -8.5t-78 -27.5q-23 -12 -37.5 -38.5t-24.5 -61.5t-14 -75t-4 -80zM327 1007q0 -137 48.5 -204.5 t159.5 -67.5q46 0 79 8t66 28q20 12 32.5 35t20.5 54t10.5 68.5t2.5 77.5q0 136 -49.5 202t-156.5 66q-45 0 -80 -7.5t-67 -25.5q-18 -11 -30.5 -34.5t-20.5 -56t-11.5 -69.5t-3.5 -74z" />
<glyph unicode="9" d="M86 909q0 102 31 186t89.5 144.5t142 93.5t186.5 33q117 0 203 -45.5t142 -132t83 -211t27 -283.5q0 -182 -41.5 -316t-115.5 -221t-176.5 -129.5t-223.5 -42.5q-82 0 -153 9.5t-143 23.5l41 160q75 -26 150.5 -45t161.5 -19q55 0 98 9.5t65 24.5q27 17 54.5 52.5 t49.5 92.5t36 135.5t14 181.5q-55 -46 -138 -79t-182 -33q-92 0 -166 25t-126 75.5t-80.5 128t-28.5 182.5zM271 923q0 -159 65 -231t192 -72q81 0 152.5 16.5t126.5 45.5q0 111 -8 217.5t-36 189.5t-80.5 134t-142.5 51q-60 0 -103.5 -13.5t-72.5 -35.5q-16 -13 -32.5 -36 t-30 -59.5t-22 -87.5t-8.5 -119z" />
<glyph unicode=":" horiz-adv-x="442" d="M82 98l138 138l140 -138l-140 -139zM82 792l138 139l140 -139l-140 -139z" />
<glyph unicode=";" horiz-adv-x="442" d="M40 -214l159 457l157 -62l-239 -424zM95 792l125 125l127 -125l-127 -125z" />
<glyph unicode="&#x3c;" horiz-adv-x="927" d="M66 601v55l779 474l46 -86l-684 -410v-4l684 -370l-46 -88z" />
<glyph unicode="=" horiz-adv-x="1085" d="M66 315v102h953v-102h-953zM66 830v102h953v-102h-953z" />
<glyph unicode="&#x3e;" horiz-adv-x="927" d="M38 260l684 370v4l-684 410l46 86l779 -474v-55l-779 -429z" />
<glyph unicode="?" horiz-adv-x="809" d="M66 1180l33 158q51 14 108.5 22t121.5 8q96 0 173 -20t130.5 -60.5t82 -102.5t28.5 -146q0 -70 -16.5 -121.5t-48 -92t-76.5 -72.5t-102 -61q-43 -23 -75.5 -42t-53.5 -39t-31 -43t-10 -52q0 -32 8 -59.5t22 -59.5l-66 -26q-21 32 -42 77.5t-21 91.5q0 39 12 69t31 52.5 t44 40t53 33.5q51 32 89.5 59.5t63 60.5t36.5 73.5t12 95.5q0 103 -71 152t-191 49q-59 0 -120 -10.5t-124 -34.5zM195 98l139 138l140 -138l-140 -139z" />
<glyph unicode="@" horiz-adv-x="1846" d="M132 418q0 220 68 389.5t188 296.5q59 63 134.5 112t160.5 82.5t177.5 50.5t186.5 17q165 0 290.5 -39.5t209 -113t126 -179t42.5 -235.5q0 -85 -16 -156t-43 -131.5t-63.5 -110.5t-77.5 -92q-54 -57 -116.5 -97t-124.5 -66t-120 -38t-105 -12q-22 0 -43 10.5t-21 40.5 q0 26 2.5 59t5.5 59q-25 -25 -59.5 -54.5t-74 -54.5t-82.5 -41.5t-87 -16.5q-70 0 -108 52t-38 139q0 78 14.5 155t43 146.5t70 129t95.5 102.5q45 37 87 60.5t86.5 36.5t93 18t108.5 5q38 0 62 -1t54 -5l-110 -503q-11 -55 -16 -96t-5 -66t11.5 -43t58.5 -18 q56 0 122.5 39.5t123.5 106.5q26 31 51 72t44.5 93.5t31 118t11.5 144.5q0 120 -38 212.5t-108.5 156t-170.5 95.5t-224 32q-82 0 -161 -17t-152.5 -51.5t-138 -86.5t-117.5 -120q-84 -111 -133 -263.5t-49 -333.5q0 -128 34.5 -240.5t106.5 -196t182.5 -132.5t263.5 -49 q89 0 161 13.5t132 36.5t110 52.5t96 61.5l37 -54q-51 -40 -110 -75t-127 -61.5t-149 -42t-179 -15.5q-171 0 -304.5 55.5t-224.5 152.5t-138.5 226t-47.5 278zM673 367q0 -132 77 -132q38 0 74.5 9t68 23t59 32t49.5 36l106 505q-9 0 -17 1q-6 0 -14 0.5t-13 0.5 q-28 0 -61 -2.5t-66.5 -10.5t-66 -22.5t-59.5 -38.5q-27 -25 -51.5 -66.5t-43.5 -94.5t-30.5 -114t-11.5 -126z" />
<glyph unicode="A" horiz-adv-x="1209" d="M7 0l536 1340l158 46l502 -1386h-191l-169 495l-520 -7l-182 -488h-134zM356 583h460l-225 631z" />
<glyph unicode="B" horiz-adv-x="1137" d="M169 5v1337q79 10 168 14t178 4q108 0 194 -18.5t146.5 -57t93 -100t32.5 -145.5q0 -69 -22 -121.5t-58 -91t-83 -63t-96 -36.5v-4q82 -17 142.5 -50.5t100.5 -80t59.5 -104.5t19.5 -122q0 -90 -27 -160t-84.5 -119.5t-148.5 -75.5t-218 -26q-42 0 -93.5 1.5t-105 4 t-105 6.5t-93.5 8zM352 96q29 -2 77.5 -7t106.5 -5q29 0 60.5 2t61.5 7t55 11.5t41 15.5q17 9 34 25t31.5 45t24 72.5t9.5 108.5q0 80 -27 137t-72.5 92.5t-106.5 51.5t-128 16h-167v-572zM352 764h176q54 0 98.5 10t74.5 26q14 8 30 23t29.5 41t22 63.5t8.5 90.5 q0 66 -20.5 112t-58 76t-92 43.5t-121.5 13.5q-30 0 -51.5 -0.5t-38 -2t-29.5 -2.5t-28 -3v-491z" />
<glyph unicode="C" horiz-adv-x="1191" d="M125 680q0 193 55.5 324t144.5 212.5t200 116.5t222 35q41 0 91 -3t97.5 -7t89.5 -8.5t65 -9.5l-49 -161q-26 8 -73.5 18.5t-102.5 19t-107.5 14.5t-88.5 6q-79 0 -135.5 -12.5t-105.5 -51.5q-60 -46 -83.5 -174t-23.5 -319q0 -292 85 -443t274 -151q53 0 109.5 4 t112.5 12t110.5 19.5t101.5 27.5v-70q-49 -24 -105 -41.5t-114.5 -30t-118 -19t-115.5 -6.5q-146 0 -247.5 50t-166 141t-93.5 219.5t-29 287.5z" />
<glyph unicode="D" horiz-adv-x="1444" d="M169 11v1330q44 5 100.5 10t118 8t125 5t122.5 2q154 0 280 -39t216 -118t139 -199t49 -281q0 -163 -45 -299.5t-135 -234t-223 -152.5t-310 -55q-118 0 -234 6.5t-203 16.5zM352 98q41 -7 92 -11t116 -4h11q121 1 219 21q102 22 166 68q31 22 62 61t55 102.5t39 154.5 t15 218q0 157 -46 264.5t-122.5 173.5t-177 94.5t-207.5 28.5q-46 0 -77 -1.5t-55 -3.5t-44 -4.5t-46 -5.5v-1156z" />
<glyph unicode="E" horiz-adv-x="980" d="M169 0v1352h693l-13 -98l-497 -7v-479l468 -5l-13 -86l-455 -10v-563l552 -10l-13 -94h-722z" />
<glyph unicode="F" horiz-adv-x="960" d="M169 0v1352h706l-12 -97l-511 -6v-547l494 -5l-13 -86l-481 -10v-601h-183z" />
<glyph unicode="G" horiz-adv-x="1346" d="M125 686q0 159 40.5 285t121.5 214.5t204 135.5t288 47q41 0 91.5 -3.5t100 -9t94 -12t73.5 -11.5l-48 -157q-34 10 -86 21.5t-109.5 20t-115 14.5t-102.5 6q-74 0 -139 -12t-121 -57q-30 -24 -48.5 -75.5t-29 -117.5t-14.5 -141t-4 -148q0 -133 18.5 -243t59.5 -189.5 t106 -123t160 -43.5q45 0 95 3.5t98.5 8.5t91.5 11.5t73 13.5v437l-301 16l15 70h464v-552q-42 -20 -104 -39.5t-134.5 -36t-150.5 -27t-151 -10.5q-146 0 -247.5 50.5t-166 143.5t-93.5 222.5t-29 287.5z" />
<glyph unicode="H" horiz-adv-x="1448" d="M169 0v1352h183v-625h744v625h183v-1352h-183v628h-744v-628h-183z" />
<glyph unicode="I" horiz-adv-x="516" d="M169 0v1352h183v-1352h-183z" />
<glyph unicode="J" horiz-adv-x="516" d="M24 -343q45 30 73 70.5t44 88t22 99.5t6 107v1330h183v-1352q0 -150 -74.5 -246.5t-215.5 -158.5z" />
<glyph unicode="K" horiz-adv-x="1271" d="M169 0v1352h183v-647q26 30 60 71t73 86.5t80 94t79 92t72.5 81t59.5 62.5q49 49 88.5 80.5t78.5 49.5t80.5 25t95.5 7q25 0 43.5 -2.5t29.5 -6.5v-58h-19q-73 0 -147 -40.5t-168 -133.5q-26 -27 -57 -60t-65 -69t-68 -74.5t-66 -73.5q51 -92 104.5 -183.5t108 -176.5 t110.5 -159.5t112 -129.5t112.5 -86.5t113.5 -31.5h16v-60q-45 -12 -84.5 -18t-100.5 -6q-62 0 -118 30t-109 82t-103 121.5t-99 149t-97 165.5t-98 169q-9 -10 -26.5 -28.5t-35 -38.5t-33.5 -37t-23 -25v-573h-183z" />
<glyph unicode="L" horiz-adv-x="950" d="M169 0v1352h183v-1249h514l-13 -103h-684z" />
<glyph unicode="M" horiz-adv-x="1803" d="M112 0l139 1361h111l550 -1110l516 1110h112l151 -1361h-181l-111 1031l-475 -1031h-84l-517 1031l-91 -1031h-120z" />
<glyph unicode="N" horiz-adv-x="1490" d="M169 0v1361h80l956 -1051h1q-2 139 -3 258q0 50 -1 101.5t-1.5 97t-0.5 81v55.5v447h121v-1357h-83l-954 1054h-4q2 -149 5 -272q1 -53 2 -105t1.5 -95.5t1 -75.5t0.5 -44v-455h-121z" />
<glyph unicode="O" horiz-adv-x="1540" d="M125 681q0 159 37 285.5t115 215.5t198 136.5t285 47.5q164 0 287 -47.5t204.5 -136.5t122.5 -215.5t41 -285.5q0 -161 -41.5 -290.5t-123.5 -220.5t-205.5 -139.5t-286.5 -48.5q-167 0 -287 50t-196.5 141.5t-113 220.5t-36.5 287zM321 681q0 -128 21.5 -237t72 -188 t134 -124t209.5 -45q120 0 203.5 22t149.5 78q29 24 49 75t33 117.5t19 144.5t6 157q0 129 -26 236t-82.5 183.5t-143 119t-206.5 42.5q-104 0 -193.5 -22.5t-142.5 -67.5q-29 -25 -49 -74t-32 -114t-17 -142.5t-5 -160.5z" />
<glyph unicode="P" horiz-adv-x="1081" d="M169 0v1345q83 7 183.5 11t196.5 4q118 0 205 -26.5t143.5 -75t84.5 -117.5t28 -156q0 -91 -33 -170.5t-102.5 -137.5t-175.5 -91.5t-253 -33.5h-12l-10 58l38 6q71 12 135 31.5t111.5 57.5t76 102t28.5 167q0 77 -23.5 132.5t-66 91t-103 52.5t-133.5 17q-38 0 -66 -2 t-69 -6v-1259h-183z" />
<glyph unicode="Q" horiz-adv-x="1540" d="M125 681q0 159 37 285.5t115 215.5t198 136.5t285 47.5q164 0 287 -47.5t204.5 -136.5t122.5 -215.5t41 -285.5q0 -124 -23.5 -229.5t-71.5 -189.5t-120.5 -144.5t-168.5 -95.5q22 -34 64 -81.5t94.5 -97.5t114.5 -99.5t125.5 -88.5t125 -63.5t115.5 -24.5q30 0 56 2.5 t44 5.5l12 -62q-62 -19 -127.5 -32.5t-149.5 -13.5q-74 0 -159 44t-169.5 116t-164 165.5t-141.5 192.5q-22 -2 -46 -2.5t-67 -0.5q-167 0 -287 50t-196.5 141.5t-113 220.5t-36.5 287zM321 681q0 -128 21.5 -237t72 -188t134 -124t209.5 -45q120 0 203.5 22t149.5 78 q29 24 49 75t33 117.5t19 144.5t6 157q0 129 -26 236t-82.5 183.5t-143 119t-206.5 42.5q-104 0 -193.5 -22.5t-142.5 -67.5q-29 -25 -49 -74t-32 -114t-17 -142.5t-5 -160.5z" />
<glyph unicode="R" horiz-adv-x="1207" d="M169 0v1349q83 7 183.5 11t196.5 4q118 0 205 -25.5t143.5 -73t84.5 -116t28 -155.5q0 -85 -23 -150t-61.5 -114t-90.5 -83.5t-109 -56.5q61 -104 117 -198.5t112.5 -166.5t115 -114t124.5 -42h13v-60q-29 -10 -74 -17t-91 -7q-66 0 -112.5 18t-90.5 67.5t-95.5 136.5 t-126.5 226l-75 137h-191v-570h-183zM352 664h57q124 0 201.5 14.5t118.5 40.5q18 12 34 32t27 51t17 75t6 106q0 78 -22.5 133t-64.5 89t-102 50t-137 16q-38 0 -66 -2t-69 -6v-599z" />
<glyph unicode="S" horiz-adv-x="999" d="M75 79l66 159q29 -20 70 -42t87.5 -40.5t96 -31t95.5 -12.5q63 0 108.5 12t74.5 29q16 9 30.5 22.5t26 36t18 56t6.5 80.5q0 63 -27 105.5t-72 73t-102 53.5t-115.5 47.5t-115.5 54t-101.5 74t-72 106.5t-27.5 152q0 62 29.5 124.5t84 113.5t134.5 83.5t181 32.5 q82 0 153.5 -9.5t142.5 -23.5l-41 -160q-75 26 -157 45t-153 19q-55 0 -97.5 -7.5t-64.5 -23.5q-24 -19 -41 -54t-17 -106q0 -57 27 -96t71.5 -68t101.5 -52t116.5 -47.5t116 -55.5t101.5 -75.5t72 -108t27 -153.5q0 -77 -30.5 -150t-89 -131t-143.5 -93.5t-195 -35.5 q-115 0 -205.5 26t-169.5 71z" />
<glyph unicode="T" horiz-adv-x="1054" d="M20 1254l13 98h1002l-13 -94l-403 -11v-1247h-183v1247z" />
<glyph unicode="U" horiz-adv-x="1379" d="M162 458v894h179v-920q0 -102 21.5 -168t63 -105t103.5 -55t144 -16q101 0 178.5 20.5t118.5 63.5q36 38 53 106.5t17 158.5v915h177v-875q0 -102 -35.5 -192t-106 -157t-175 -106.5t-241.5 -39.5q-114 0 -205 25t-156.5 81t-100.5 147t-35 223z" />
<glyph unicode="V" horiz-adv-x="1198" d="M7 1352h204l269 -729q31 -82 60.5 -169t53.5 -160q28 -84 53 -166q28 88 55 178q24 77 52.5 163.5t53.5 157.5l256 725h128l-487 -1352h-178z" />
<glyph unicode="W" horiz-adv-x="1826" d="M20 1352h199l228 -796q11 -43 29 -108t35 -129q20 -73 39 -154q26 81 49 154q10 32 21 65l21.5 64.5t20 59.5t15.5 49l213 626h118l221 -626q7 -21 16.5 -49t20 -59.5t22 -64.5t21.5 -65q24 -73 52 -154q21 81 40 154q7 32 16 65t16.5 64.5t15 59.5t14.5 49l219 795h125 l-387 -1352h-178l-243 697q-10 29 -23.5 73t-27.5 87q-16 49 -33 101q-17 -52 -32 -103q-13 -42 -27.5 -88t-25.5 -77l-233 -690h-179z" />
<glyph unicode="X" horiz-adv-x="1157" d="M26 0l458 693l-422 659h218l309 -514l332 514h128l-397 -600l483 -752h-218l-369 607l-394 -607h-128z" />
<glyph unicode="Y" horiz-adv-x="1092" d="M13 1352h205l379 -720l355 720h128l-425 -833v-519h-178v519z" />
<glyph unicode="Z" horiz-adv-x="1259" d="M71 0v92l796 1155h-10q-44 0 -107.5 1t-136 2t-148.5 2.5t-144 3.5t-122 3.5t-83 3.5l12 89h956v-85l-798 -1163q10 0 50 -0.5t97 -1t121.5 -1.5t122.5 -1h100.5h54.5q104 0 170.5 15.5t107.5 38t63.5 47.5t40.5 46l40 -29q-16 -28 -43 -67.5t-68.5 -76t-100.5 -62 t-138 -25.5q-39 0 -112 0.5t-160.5 2.5t-180.5 3.5t-173 3.5t-136 2.5t-71 0.5z" />
<glyph unicode="[" horiz-adv-x="662" d="M218 -345v1859h387v-99h-234v-1661h234v-99h-387z" />
<glyph unicode="\" horiz-adv-x="802" d="M-18 1526l95 41l744 -1818l-91 -38z" />
<glyph unicode="]" horiz-adv-x="662" d="M61 -246h233v1661h-233v99h388v-1859h-388v99z" />
<glyph unicode="^" horiz-adv-x="1050" d="M48 517l425 835h70l459 -835l-96 -44l-390 718h-6l-366 -718z" />
<glyph unicode="_" horiz-adv-x="894" d="M-7 -222h909v-97h-909v97z" />
<glyph unicode="`" horiz-adv-x="590" d="M114 1348l112 108l293 -343l-68 -60z" />
<glyph unicode="a" horiz-adv-x="968" d="M92 230q0 66 19.5 115.5t61.5 83t109.5 50.5t164.5 20l163 5v160q0 75 -30.5 110t-101.5 35q-52 0 -125.5 -19t-145.5 -49l-31 84q42 17 89 35t95.5 32t99 22.5t98.5 8.5q54 0 97 -12t73 -40.5t45 -75.5t15 -115v-432q0 -154 74 -154q36 0 94 16v-57q-43 -23 -93 -44 t-105 -21q-32 0 -54.5 10t-37 26.5t-23.5 36.5t-16 39q-34 -22 -66 -43t-67 -37.5t-74.5 -26.5t-88.5 -10q-111 0 -175 61.5t-64 185.5zM271 255q0 -75 25.5 -115.5t86.5 -40.5q64 0 118.5 14.5t113.5 47.5q0 7 -2.5 76t-2.5 196q-144 0 -218 -18.5t-91 -36.5 q-16 -18 -23 -49.5t-7 -73.5z" />
<glyph unicode="b" horiz-adv-x="1083" d="M161 33v1448l178 45v-556q0 -24 -0.5 -49t-0.5 -46q-1 -24 -1 -49q27 20 56 37t61 30.5t67.5 21.5t77.5 8q74 0 142.5 -24t121.5 -76.5t84.5 -138t31.5 -206.5q0 -118 -31 -209.5t-89.5 -155t-142.5 -97t-189 -33.5q-83 0 -176.5 11t-189.5 39zM339 95q42 -7 81 -10 t84 -3q64 0 117.5 10.5t82.5 34.5q14 13 29 40.5t28.5 70.5t21.5 100.5t8 128.5q0 90 -18 153.5t-51 104.5t-79 59.5t-102 18.5q-55 0 -104.5 -11.5t-97.5 -29.5v-667z" />
<glyph unicode="c" horiz-adv-x="861" d="M104 428q0 116 29 207.5t85.5 155.5t139.5 98t191 34q65 0 131 -7.5t121 -17.5l-46 -150q-25 12 -59.5 25.5t-70.5 23.5t-71 16.5t-60 6.5q-32 0 -63 -10.5t-61 -37.5q-15 -13 -29 -35.5t-24.5 -61.5t-16.5 -97t-6 -141q0 -95 14.5 -158.5t44.5 -101t74 -53.5t102 -16 q66 0 137.5 16t129.5 42l24 -54q-35 -25 -75 -48.5t-85 -41.5t-94 -28.5t-101 -10.5q-76 0 -142 23.5t-114.5 76.5t-76.5 138t-28 207z" />
<glyph unicode="d" horiz-adv-x="1083" d="M104 428q0 116 31 208.5t90 155.5t142.5 97t189.5 34q42 0 92.5 -5.5t98.5 -11.5q-1 19 -1 39q-1 16 -1 34v28v474l177 45v-1526h-118l-49 84h-4q-27 -19 -57.5 -37t-63 -32.5t-69.5 -23t-78 -8.5q-73 0 -142 23.5t-121.5 76.5t-84.5 138t-32 207zM293 438q0 -90 18 -153 t51 -104t79 -59.5t102 -18.5q55 0 108 11t93 29v667q-42 7 -81 10.5t-84 3.5q-63 0 -116.5 -10.5t-82.5 -34.5q-14 -13 -29.5 -39.5t-28.5 -68t-21 -100t-8 -133.5z" />
<glyph unicode="e" horiz-adv-x="962" d="M104 428q0 136 32 231t87.5 153t130.5 84.5t162 26.5q60 0 116.5 -17.5t103.5 -57.5t82 -106.5t52 -165.5v-11q-12 -15 -32.5 -26.5t-53.5 -21t-81 -16.5t-116 -11l-293 -20v-57q0 -160 57 -232.5t172 -72.5q47 0 98 9.5t97 22.5t84 27t59 24l22 -51q-38 -25 -85.5 -53 t-102.5 -51t-115 -38t-123 -15q-76 0 -140 23.5t-111.5 76.5t-74.5 138t-27 207zM297 554l378 16q-7 45 -19.5 90.5t-34.5 81t-55 58t-80 22.5q-32 0 -63 -6.5t-56 -23.5q-15 -11 -27.5 -34t-21.5 -55t-15 -70.5t-6 -78.5z" />
<glyph unicode="f" horiz-adv-x="613" d="M33 807l13 59q28 7 54 12q23 5 46 9t37 7v163q0 85 33 166t86.5 144.5t121.5 102.5t137 39q28 0 61 -1.5t56 -4.5l-34 -137q-32 7 -66.5 9t-65.5 2q-29 0 -62 -4t-51 -23q-11 -10 -18 -36t-11 -64t-6 -87.5t-2 -106.5v-153h225l-13 -85q-38 -2 -75 -5q-32 -3 -69 -4.5 t-68 -3.5v-805h-179v805h-88q-29 0 -62 2z" />
<glyph unicode="g" horiz-adv-x="972" d="M92 -433q0 34 9.5 64.5t24 58.5t33 52t38.5 47l45 -16q-15 -37 -21.5 -68.5t-6.5 -68.5q0 -72 55.5 -114t147.5 -42q91 0 165.5 17t128.5 56q35 26 52 73t17 103q0 68 -43.5 100t-147.5 32l-144 2q-156 1 -226.5 41.5t-70.5 131.5q0 26 11 53.5t29 53.5t39.5 50.5 t43.5 44.5q-72 42 -118 118.5t-46 193.5q0 86 27 155.5t76 117.5t115 74t144 26q64 0 114.5 -8t97.5 -23q63 3 135 11t126 20l-19 -91q-31 -11 -75.5 -17.5t-83.5 -6.5q23 -40 38.5 -95.5t15.5 -143.5q0 -89 -29.5 -156t-79.5 -112t-119 -68t-145 -23q-27 0 -63 2t-56 8 q-9 -18 -19.5 -52.5t-10.5 -68.5q0 -41 39 -55.5t94 -14.5h194q88 0 148.5 -14t97.5 -43.5t52.5 -74.5t15.5 -107q0 -75 -41 -150.5t-114 -134.5t-173.5 -97t-219.5 -38q-81 0 -138 16t-92 43t-51 62.5t-16 75.5zM272 562q0 -50 13 -97t37 -82.5t56.5 -57t71.5 -21.5 q90 0 145 37q27 18 42 72t15 155q0 55 -13 102.5t-39 82.5t-62 55t-81 20q-85 0 -131 -33q-54 -40 -54 -233z" />
<glyph unicode="h" horiz-adv-x="1110" d="M161 0v1481l178 45v-626q0 -18 -1 -51t-1 -52q30 17 70 39t87 41t98 32.5t102 13.5q58 0 106.5 -16.5t83.5 -50.5t54.5 -84t19.5 -117v-655h-178v627q0 32 -5 63t-21.5 56t-47 41t-82.5 16q-31 0 -69 -8t-76 -20t-74.5 -28t-65.5 -32v-715h-178z" />
<glyph unicode="i" horiz-adv-x="500" d="M128 1246l120 120l122 -120l-122 -120zM161 0v903h178v-903h-178z" />
<glyph unicode="j" horiz-adv-x="500" d="M33 -573q67 71 97.5 175.5t30.5 264.5v1036h178v-1006q0 -106 -19 -183.5t-52.5 -139t-80 -110.5t-100.5 -95zM128 1246l120 120l122 -120l-122 -120z" />
<glyph unicode="k" horiz-adv-x="983" d="M161 0v1481l178 45v-900v-26.5t-0.5 -34t-1 -33.5t-0.5 -24q35 41 76.5 86.5t82 89t77 81.5t62.5 63q43 41 82 63t100 22q20 0 45.5 -2.5t37.5 -8.5v-56h-5q-29 0 -53.5 -6t-47.5 -18t-47 -30t-51 -44q-14 -11 -40 -37.5t-53 -54.5q-31 -33 -67 -69q22 -35 50 -87.5 t60 -110.5t68.5 -114.5t77 -103t83 -74.5t89.5 -28h13v-60q-29 -10 -68.5 -17t-76.5 -7q-72 0 -126 43t-101.5 112t-92.5 155t-98 172l-75 -75v-392h-178z" />
<glyph unicode="l" horiz-adv-x="500" d="M161 0v1481l178 45v-1526h-178z" />
<glyph unicode="m" horiz-adv-x="1650" d="M161 0v903h149l27 -106q27 17 65 39t81.5 41t91.5 32.5t96 13.5q77 0 136 -34.5t88 -104.5l21 13q28 17 65.5 39t81 41t92 32.5t95.5 13.5q54 0 99.5 -16.5t78.5 -50.5t51.5 -83.5t18.5 -116.5v-656h-178v628q0 32 -4.5 63t-20 55.5t-43 40.5t-73.5 16q-31 0 -66 -9 t-70 -21.5t-68.5 -28t-59.5 -31.5q4 -28 4 -57v-656h-178v628q0 32 -5 63t-20 55.5t-43 40.5t-74 16q-30 0 -64.5 -8t-68.5 -20t-67 -28t-60 -32v-715h-178z" />
<glyph unicode="n" horiz-adv-x="1110" d="M161 0v903h149l25 -106h3q30 17 70.5 39t86.5 41t96.5 32.5t101.5 13.5q58 0 107 -16.5t84 -50.5t54.5 -83.5t19.5 -116.5v-656h-178v628q0 32 -5 63t-21.5 55.5t-47 40.5t-82.5 16q-33 0 -70.5 -8t-75.5 -20t-74 -28t-65 -32v-715h-178z" />
<glyph unicode="o" horiz-adv-x="1083" d="M104 451q0 109 28 196.5t83.5 148.5t137 94t190.5 33q106 0 188 -31t137.5 -91t83 -147.5t27.5 -199.5q0 -109 -27.5 -196.5t-83 -148.5t-137.5 -93.5t-188 -32.5q-213 0 -326 119.5t-113 348.5zM293 453q0 -99 14 -169t43.5 -115t76.5 -66t113 -21q54 0 93.5 10.5 t79.5 39.5q46 34 62 119.5t16 199.5q0 193 -59 282t-187 89q-53 0 -94.5 -10.5t-78.5 -36.5q-22 -16 -36.5 -48.5t-24.5 -75t-14 -94t-4 -104.5z" />
<glyph unicode="p" horiz-adv-x="1083" d="M161 -619v1495l157 40l19 -90q27 20 56 37t61 30.5t67.5 21.5t77.5 8q74 0 142.5 -24t121.5 -76.5t84.5 -138t31.5 -206.5q0 -118 -31 -209.5t-89.5 -155t-142.5 -97t-189 -33.5q-50 0 -99 10t-91 22q0 -7 0.5 -21.5t0.5 -32.5t0.5 -37t0.5 -35v-466zM339 95 q42 -7 81 -10t84 -3q64 0 117.5 10.5t82.5 34.5q14 13 29 40.5t28.5 70.5t21.5 100.5t8 128.5q0 90 -18 153.5t-51 104.5t-79 59.5t-102 18.5q-55 0 -104.5 -11.5t-97.5 -31.5v-665z" />
<glyph unicode="q" horiz-adv-x="1083" d="M104 428q0 116 31 208.5t90 155.5t142.5 97t189.5 34q83 0 177 -8.5t189 -22.5v-1469l-179 -42v564q0 35 1.5 74.5t4.5 59.5h-4q-28 -20 -57 -37t-60.5 -30t-67.5 -21t-77 -8q-73 0 -142 23.5t-121.5 76.5t-84.5 138t-32 207zM293 438q0 -90 18 -153t51 -104t79 -59.5 t102 -18.5q55 0 106 10.5t95 29.5v667q-42 7 -81 10.5t-84 3.5q-63 0 -116.5 -10.5t-82.5 -34.5q-14 -13 -29.5 -41t-28.5 -71t-21 -100t-8 -129z" />
<glyph unicode="r" horiz-adv-x="682" d="M161 0v903h149l25 -141h2q14 17 30 37.5t32.5 39t35 34t39.5 25.5q36 15 80.5 20t98.5 5l-26 -163q-30 3 -68.5 6.5t-72.5 3.5q-25 0 -43 -5.5t-34.5 -16.5t-32.5 -26.5t-37 -35.5v-686h-178z" />
<glyph unicode="s" horiz-adv-x="798" d="M70 66l53 123q29 -19 62 -36.5t69 -33t74.5 -24.5t79.5 -9q45 0 76.5 6.5t54.5 22.5q21 14 34 41t13 79q0 46 -35.5 75t-89 50t-116.5 42.5t-116 53t-89 79.5t-36 125q0 57 24 97t59 75q45 42 104.5 66.5t130.5 24.5q57 0 120 -7.5t119 -16.5l-26 -131q-26 7 -58 13.5 t-65.5 12t-64.5 8.5t-55 3q-53 0 -82 -6t-45 -18q-14 -10 -21.5 -29t-7.5 -51q0 -42 36 -68.5t90 -47.5t116 -43t116 -54.5t89.5 -80.5t35.5 -123q0 -68 -23 -116t-61 -85q-21 -20 -46 -38.5t-57 -32t-71.5 -21.5t-88.5 -8q-90 0 -163.5 19.5t-138.5 63.5z" />
<glyph unicode="t" horiz-adv-x="612" d="M59 814v52l239 195h36l4 -158h247l-12 -81q-33 -4 -73.5 -7t-75.5 -6q-43 -4 -85 -5v-588q0 -48 18 -80.5t77 -32.5q32 0 77 1.5t82 3.5v-62q-20 -9 -51 -19.5t-68 -20.5t-74 -16.5t-69 -6.5q-29 0 -59 7t-54.5 27t-40.5 56.5t-16 94.5v637z" />
<glyph unicode="u" horiz-adv-x="1110" d="M152 247v656h178v-628q0 -32 5.5 -63t22 -55.5t46.5 -40.5t82 -16q33 0 70.5 8t76 20t74 28t64.5 31v716h178v-903h-149l-26 106q-31 -18 -71 -39.5t-87 -40.5t-97 -32.5t-102 -13.5q-58 0 -107 16.5t-84 50.5t-54.5 83.5t-19.5 116.5z" />
<glyph unicode="v" horiz-adv-x="976" d="M-8 838v54q11 3 27.5 7t34 7t36 5t34.5 2q38 0 68.5 -8.5t51.5 -33.5q28 -33 63.5 -111.5t74 -180.5t76.5 -217t70 -221h4q63 101 105.5 188t67.5 167t35 153t10 146q0 22 -4 49t-9 43l153 33q6 -18 10 -47.5t4 -55.5q0 -102 -32 -208.5t-83 -212.5t-112.5 -206 t-120.5 -190h-159q-39 135 -84 265.5t-87.5 238.5t-79 187t-60.5 109q-15 18 -32 28t-50 10h-12z" />
<glyph unicode="w" horiz-adv-x="1519" d="M-7 838v54q10 3 27.5 7t37.5 7t39.5 5t33.5 2q34 0 59.5 -9t45.5 -33q16 -20 34.5 -62t39 -99.5t41 -127.5t41 -144.5t40 -150.5t38.5 -146h4q43 85 79.5 174t65.5 178t51 175.5t36 165.5l149 20q24 -61 53 -144.5t59.5 -178t61.5 -195t59 -195.5h4q51 94 89.5 178 t64 161t38 151t12.5 148q0 29 -4.5 60.5t-9.5 47.5l150 33q7 -18 11 -47.5t4 -55.5q0 -94 -31 -198t-79.5 -209.5t-106 -210t-109.5 -199.5h-172q-42 160 -90.5 319.5t-100.5 300.5h-4q-21 -76 -49 -156t-59.5 -160t-68 -157t-74.5 -147h-169q-33 124 -68.5 254.5 t-69.5 243.5t-62 194.5t-47 107.5q-16 21 -33.5 29.5t-40.5 8.5h-20z" />
<glyph unicode="x" horiz-adv-x="980" d="M7 9v54h14q52 0 94.5 26t85.5 76t92 124.5t112 172.5q-51 92 -90.5 163.5t-72 120.5t-63 73t-63.5 24h-25v53q15 4 33.5 7t37 5.5t35 3.5t27.5 1q52 0 87 -17.5t65.5 -55t62 -95t76.5 -135.5q43 68 79 124.5t69 96t64.5 61t68.5 21.5q25 0 46 -4.5t44 -13.5v-57h-35 q-34 0 -65.5 -22.5t-64.5 -64t-70 -101t-83 -131.5q50 -91 96.5 -173.5t89.5 -145.5t81.5 -100.5t72.5 -37.5q15 0 22 0.5t18 3.5v-53q-27 -9 -64.5 -15t-79.5 -6q-57 0 -98.5 25t-79 73.5t-77 119.5t-92.5 164q-44 -70 -84 -138t-82 -123t-89.5 -88.5t-105.5 -33.5 q-46 0 -89 18z" />
<glyph unicode="y" horiz-adv-x="966" d="M-166 -531q12 -2 27 -4t27 -2q39 0 88 24.5t102.5 64.5t107.5 92t103.5 109t92 113t71.5 105q-52 148 -102 277.5t-93.5 233.5t-80.5 180t-62 117q-20 31 -47.5 45t-54.5 14h-14v54q22 7 61.5 14t78.5 7q34 0 66.5 -8.5t51.5 -33.5q29 -35 65 -110t75 -173t79.5 -212.5 t79.5 -228.5h4q49 85 80.5 166.5t49.5 158t24.5 148.5t6.5 140q0 19 -2 39.5t-5.5 38t-7.5 31.5t-6 22l153 36q10 -23 15 -58t5 -72q0 -79 -24.5 -178.5t-65.5 -205t-95 -212.5t-112 -201q-41 -65 -86 -135.5t-94 -139t-101.5 -130.5t-109 -109.5t-115.5 -75.5t-121 -28 q-39 0 -66.5 8t-48.5 23v56z" />
<glyph unicode="z" horiz-adv-x="851" d="M59 0v55l454 748q-35 0 -93 -1t-119.5 -1.5t-116.5 -2.5t-82 -3l15 93q41 3 114.5 5.5t160 4.5t175 3.5t159.5 1.5v-48l-462 -767q13 -1 37.5 -1.5t51.5 -1.5t53.5 -1h44.5q86 0 145 11t98.5 28t64 38t44.5 44l37 -33q-18 -29 -43 -61.5t-62.5 -60.5t-89.5 -45.5 t-124 -17.5q-58 0 -130 2t-138.5 4.5t-119 4.5t-74.5 2z" />
<glyph unicode="{" horiz-adv-x="646" d="M66 550v70q41 3 76 23t60 53t39.5 78.5t14.5 99.5v309q0 327 325 331v-80q-169 -7 -169 -212v-361q0 -56 -14 -101t-39 -78.5t-58 -57t-73 -35.5v-6q40 -11 73 -34.5t58 -57t39 -77.5t14 -100v-359q0 -117 39.5 -167.5t129.5 -52.5v-80q-325 4 -325 328v318 q0 53 -14.5 98t-39.5 78t-60 52t-76 21z" />
<glyph unicode="|" horiz-adv-x="479" d="M189 -498v2099h101v-2099h-101z" />
<glyph unicode="}" horiz-adv-x="646" d="M66 -265q90 2 129.5 52.5t39.5 167.5v359q0 56 14 100t39 77.5t58 57t72 34.5v6q-39 12 -72 35.5t-58 57t-39 78.5t-14 101v361q0 205 -169 212v80q325 -4 325 -331v-309q0 -54 14.5 -99.5t39.5 -78.5t60 -53t76 -23v-70q-41 -2 -76 -21t-60 -52t-39.5 -78t-14.5 -98 v-318q0 -324 -325 -328v80z" />
<glyph unicode="~" horiz-adv-x="1181" d="M66 465q4 140 78 213.5t218 73.5q76 0 137.5 -29t115 -64t103 -64t102.5 -29q83 0 136.5 45t55.5 141h103q-4 -140 -77.5 -213.5t-217.5 -73.5q-69 0 -128.5 29t-114 64t-107.5 64t-108 29q-83 0 -136.5 -45t-56.5 -141h-103z" />
<glyph unicode="&#xa2;" horiz-adv-x="861" d="M104 631q0 212 94.5 339.5t276.5 150.5v121h78v-116q63 -1 128.5 -8t119.5 -17l-46 -149q-38 18 -95 36t-107 28v-704q62 2 126 17.5t117 40.5l24 -55q-56 -39 -122.5 -72.5t-144.5 -48.5v-152h-78v144h-10q-76 0 -142 24t-114.5 76.5t-76.5 138t-28 206.5zM294 640 q0 -83 11.5 -141.5t34.5 -97.5t56.5 -59t78.5 -27v707q-58 -4 -105 -47q-15 -13 -29 -35.5t-24.5 -61t-16.5 -97t-6 -141.5z" />
<glyph unicode="&#xa3;" horiz-adv-x="1129" d="M16 79q45 17 84 51t68 83.5t45.5 113.5t16.5 142v133h-155l13 94h142v211q0 71 33 151.5t93 149t145 114.5t189 46q82 0 147.5 -9.5t136.5 -23.5l-41 -160q-75 26 -157 45t-153 19q-106 0 -161 -40q-12 -10 -21 -33t-15 -57.5t-9.5 -77t-3.5 -90.5v-245h343l-13 -94h-330 v-110q0 -62 -19 -111.5t-49.5 -91t-69.5 -76.5t-80 -66q81 33 135 39.5t84 6.5q37 0 88.5 -10t107 -22t111.5 -22t104 -10t81.5 14.5t59 36.5t45 48.5t36.5 51.5l58 -34q-33 -48 -69.5 -95t-79.5 -84t-95 -59.5t-115 -22.5q-48 0 -101.5 11.5t-109 25.5t-112 25t-109.5 11 q-46 0 -111.5 -11t-152.5 -47z" />
<glyph unicode="&#xa5;" horiz-adv-x="1131" d="M13 1352h205l379 -720l355 720h128l-369 -721h321l-13 -102h-359l-5 -10v-182h377l-13 -102h-364v-235h-178v235h-378l13 102h365v182l-7 10h-371l13 102h301z" />
<glyph unicode="&#xa8;" horiz-adv-x="859" d="M112 1208l124 125l127 -125l-127 -126zM499 1208l124 125l127 -125l-127 -126z" />
<glyph unicode="&#xa9;" horiz-adv-x="1545" d="M86 676q0 142 53.5 267.5t146.5 218.5t218.5 147.5t267.5 54.5q143 0 268.5 -54.5t218.5 -147.5t147 -218.5t54 -267.5q0 -143 -54 -268.5t-147 -218.5t-218.5 -146.5t-268.5 -53.5q-142 0 -267.5 53.5t-218.5 146.5t-146.5 218.5t-53.5 268.5zM178 676q0 -123 47 -231 t127.5 -188.5t188.5 -127.5t231 -47t232 47t189.5 127.5t127.5 188.5t47 231t-47 231.5t-127.5 189t-189.5 127.5t-232 47t-231 -47t-188.5 -127.5t-127.5 -189t-47 -231.5zM388 681q0 120 39 203.5t100.5 133.5t137.5 72.5t149 22.5q28 0 60.5 -1.5t64 -4t58.5 -6t43 -7.5 l-33 -120q-17 5 -46 11t-62.5 12t-66 10t-56.5 4q-51 0 -89 -8t-71 -31q-39 -30 -54.5 -99.5t-15.5 -191.5q0 -164 55 -255.5t180 -91.5q72 0 142 11t132 30v-70q-64 -30 -138 -46t-146 -16q-96 0 -168 31t-119.5 88.5t-71.5 138.5t-24 180z" />
<glyph unicode="&#xab;" horiz-adv-x="891" d="M79 446l293 407l86 -65l-247 -317l248 -288l-99 -87zM432 446l306 407l72 -65l-246 -317l248 -288l-99 -87z" />
<glyph unicode="&#xad;" horiz-adv-x="644" d="M66 405l13 140h499l-13 -140h-499z" />
<glyph unicode="&#xae;" horiz-adv-x="1545" d="M86 676q0 142 53.5 267.5t146.5 218.5t218.5 147.5t267.5 54.5q143 0 268.5 -54.5t218.5 -147.5t147 -218.5t54 -267.5q0 -143 -54 -268.5t-147 -218.5t-218.5 -146.5t-268.5 -53.5q-142 0 -267.5 53.5t-218.5 146.5t-146.5 218.5t-53.5 268.5zM178 676q0 -123 47 -231 t127.5 -188.5t188.5 -127.5t231 -47t232 47t189.5 127.5t127.5 188.5t47 231t-47 231.5t-127.5 189t-189.5 127.5t-232 47t-231 -47t-188.5 -127.5t-127.5 -189t-47 -231.5zM491 251v847q54 3 120.5 5.5t130.5 2.5q156 0 237.5 -61.5t81.5 -169.5q0 -53 -17 -93.5t-44.5 -72 t-64 -52.5t-73.5 -35q40 -65 76 -120.5t71.5 -95.5t72 -63.5t76.5 -23.5h9v-60q-20 -7 -44.5 -11.5t-54.5 -4.5q-44 0 -76 11t-64 41.5t-67.5 85.5t-84.5 142l-51 87h-98v-359h-136zM627 693h22q82 0 133 4.5t79 21.5q12 8 22.5 18t17.5 26.5t11 41t4 62.5q0 49 -14.5 80 t-42 48t-68 23t-90.5 6q-17 0 -32.5 -0.5t-41.5 -3.5v-327z" />
<glyph unicode="&#xb4;" horiz-adv-x="609" d="M119 1113l293 343l113 -110l-338 -294z" />
<glyph unicode="&#xb8;" horiz-adv-x="443" d="M38 -441l16 81q19 -6 48 -8.5t51 -2.5q66 0 95 25t29 65q0 29 -17.5 49.5t-43.5 33t-56.5 19t-55.5 9.5l94 170h86l-58 -103q82 -13 134.5 -52t52.5 -106q0 -93 -62.5 -144.5t-201.5 -51.5q-26 0 -58.5 5t-52.5 11z" />
<glyph unicode="&#xbb;" horiz-adv-x="891" d="M79 767l99 87l281 -350l-293 -406l-85 64l246 317zM432 767l99 87l281 -350l-293 -406l-86 64l247 317z" />
<glyph unicode="&#xc1;" horiz-adv-x="1209" d="M7 0l536 1340l158 46l502 -1386h-191l-169 495l-520 -7l-182 -488h-134zM356 583h460l-225 631zM469 1540l293 344l113 -110l-338 -294z" />
<glyph unicode="&#xc4;" horiz-adv-x="1209" d="M7 0l536 1340l158 46l502 -1386h-191l-169 495l-520 -7l-182 -488h-134zM285 1599l124 125l127 -125l-127 -126zM356 583h460l-225 631zM725 1599l124 125l127 -125l-127 -126z" />
<glyph unicode="&#xc9;" horiz-adv-x="980" d="M169 0v1352h693l-13 -98l-497 -7v-479l468 -5l-13 -86l-455 -10v-563l552 -10l-13 -94h-722zM380 1540l293 344l113 -110l-338 -294z" />
<glyph unicode="&#xcd;" horiz-adv-x="516" d="M140 1540l293 344l113 -110l-338 -294zM169 0v1352h183v-1352h-183z" />
<glyph unicode="&#xd3;" horiz-adv-x="1540" d="M125 681q0 159 37 285.5t115 215.5t198 136.5t285 47.5q164 0 287 -47.5t204.5 -136.5t122.5 -215.5t41 -285.5q0 -161 -41.5 -290.5t-123.5 -220.5t-205.5 -139.5t-286.5 -48.5q-167 0 -287 50t-196.5 141.5t-113 220.5t-36.5 287zM321 681q0 -128 21.5 -237t72 -188 t134 -124t209.5 -45q120 0 203.5 22t149.5 78q29 24 49 75t33 117.5t19 144.5t6 157q0 129 -26 236t-82.5 183.5t-143 119t-206.5 42.5q-104 0 -193.5 -22.5t-142.5 -67.5q-29 -25 -49 -74t-32 -114t-17 -142.5t-5 -160.5zM577 1540l293 344l113 -110l-338 -294z" />
<glyph unicode="&#xd4;" horiz-adv-x="1540" d="M125 681q0 159 37 285.5t115 215.5t198 136.5t285 47.5q164 0 287 -47.5t204.5 -136.5t122.5 -215.5t41 -285.5q0 -161 -41.5 -290.5t-123.5 -220.5t-205.5 -139.5t-286.5 -48.5q-167 0 -287 50t-196.5 141.5t-113 220.5t-36.5 287zM321 681q0 -128 21.5 -237t72 -188 t134 -124t209.5 -45q120 0 203.5 22t149.5 78q29 24 49 75t33 117.5t19 144.5t6 157q0 129 -26 236t-82.5 183.5t-143 119t-206.5 42.5q-104 0 -193.5 -22.5t-142.5 -67.5q-29 -25 -49 -74t-32 -114t-17 -142.5t-5 -160.5zM457 1554l257 279h111l258 -279l-64 -64l-249 204 l-250 -204z" />
<glyph unicode="&#xd6;" horiz-adv-x="1540" d="M125 681q0 159 37 285.5t115 215.5t198 136.5t285 47.5q164 0 287 -47.5t204.5 -136.5t122.5 -215.5t41 -285.5q0 -161 -41.5 -290.5t-123.5 -220.5t-205.5 -139.5t-286.5 -48.5q-167 0 -287 50t-196.5 141.5t-113 220.5t-36.5 287zM321 681q0 -128 21.5 -237t72 -188 t134 -124t209.5 -45q120 0 203.5 22t149.5 78q29 24 49 75t33 117.5t19 144.5t6 157q0 129 -26 236t-82.5 183.5t-143 119t-206.5 42.5q-104 0 -193.5 -22.5t-142.5 -67.5q-29 -25 -49 -74t-32 -114t-17 -142.5t-5 -160.5zM421 1599l124 125l127 -125l-127 -126zM861 1599 l124 125l127 -125l-127 -126z" />
<glyph unicode="&#xda;" horiz-adv-x="1379" d="M162 458v894h179v-920q0 -102 21.5 -168t63 -105t103.5 -55t144 -16q101 0 178.5 20.5t118.5 63.5q36 38 53 106.5t17 158.5v915h177v-875q0 -102 -35.5 -192t-106 -157t-175 -106.5t-241.5 -39.5q-114 0 -205 25t-156.5 81t-100.5 147t-35 223zM491 1540l293 344 l113 -110l-338 -294z" />
<glyph unicode="&#xdc;" horiz-adv-x="1379" d="M162 458v894h179v-920q0 -102 21.5 -168t63 -105t103.5 -55t144 -16q101 0 178.5 20.5t118.5 63.5q36 38 53 106.5t17 158.5v915h177v-875q0 -102 -35.5 -192t-106 -157t-175 -106.5t-241.5 -39.5q-114 0 -205 25t-156.5 81t-100.5 147t-35 223zM364 1669l124 125 l127 -125l-127 -126zM751 1669l124 125l127 -125l-127 -126z" />
<glyph unicode="&#xdd;" horiz-adv-x="1092" d="M13 1352h205l379 -720l355 720h128l-425 -833v-519h-178v519zM398 1540l293 344l113 -110l-338 -294z" />
<glyph unicode="&#xdf;" horiz-adv-x="1065" d="M152 0v1071q0 89 33 169t87.5 139.5t124 94.5t140.5 35q157 0 243.5 -63.5t86.5 -199.5q0 -45 -10.5 -82t-30 -69t-47.5 -62t-62 -59q-36 -30 -56.5 -52t-30.5 -39t-12.5 -32t-2.5 -33q0 -30 14.5 -55t38.5 -47.5t54 -43.5t62 -45q41 -30 78 -60.5t64.5 -67t44 -82.5 t16.5 -107q0 -86 -28 -141t-76 -98q-20 -18 -41 -34t-46 -28t-57.5 -19t-73.5 -7q-79 0 -144.5 19.5t-120.5 59.5l65 123q23 -19 51 -36t58.5 -31.5t62 -23t63.5 -8.5q38 0 65 11t45 28q22 20 33 48t11 76q0 45 -16.5 79t-43.5 61t-61.5 50t-69.5 49q-36 25 -70.5 52.5 t-62 59.5t-44.5 72.5t-17 91.5q0 36 5.5 63t16.5 49t26 39t33 34q48 42 79 70t49.5 55.5t25.5 62t7 88.5q0 82 -48 123.5t-153 41.5q-15 0 -36 -1.5t-42 -4.5t-39 -8.5t-26 -11.5q-11 -10 -18 -37.5t-11 -69t-6 -93t-2 -108.5v-1056h-178z" />
<glyph unicode="&#xe1;" horiz-adv-x="968" d="M92 230q0 66 19.5 115.5t61.5 83t109.5 50.5t164.5 20l163 5v160q0 75 -30.5 110t-101.5 35q-52 0 -125.5 -19t-145.5 -49l-31 84q42 17 89 35t95.5 32t99 22.5t98.5 8.5q54 0 97 -12t73 -40.5t45 -75.5t15 -115v-432q0 -154 74 -154q36 0 94 16v-57q-43 -23 -93 -44 t-105 -21q-32 0 -54.5 10t-37 26.5t-23.5 36.5t-16 39q-34 -22 -66 -43t-67 -37.5t-74.5 -26.5t-88.5 -10q-111 0 -175 61.5t-64 185.5zM271 255q0 -75 25.5 -115.5t86.5 -40.5q64 0 118.5 14.5t113.5 47.5q0 7 -2.5 76t-2.5 196q-144 0 -218 -18.5t-91 -36.5 q-16 -18 -23 -49.5t-7 -73.5zM343 1113l293 343l113 -110l-338 -294z" />
<glyph unicode="&#xe4;" horiz-adv-x="968" d="M92 230q0 66 19.5 115.5t61.5 83t109.5 50.5t164.5 20l163 5v160q0 75 -30.5 110t-101.5 35q-52 0 -125.5 -19t-145.5 -49l-31 84q42 17 89 35t95.5 32t99 22.5t98.5 8.5q54 0 97 -12t73 -40.5t45 -75.5t15 -115v-432q0 -154 74 -154q36 0 94 16v-57q-43 -23 -93 -44 t-105 -21q-32 0 -54.5 10t-37 26.5t-23.5 36.5t-16 39q-34 -22 -66 -43t-67 -37.5t-74.5 -26.5t-88.5 -10q-111 0 -175 61.5t-64 185.5zM170 1208l124 125l127 -125l-127 -126zM271 255q0 -75 25.5 -115.5t86.5 -40.5q64 0 118.5 14.5t113.5 47.5q0 7 -2.5 76t-2.5 196 q-144 0 -218 -18.5t-91 -36.5q-16 -18 -23 -49.5t-7 -73.5zM557 1208l124 125l127 -125l-127 -126z" />
<glyph unicode="&#xe9;" horiz-adv-x="962" d="M104 428q0 136 32 231t87.5 153t130.5 84.5t162 26.5q60 0 116.5 -17.5t103.5 -57.5t82 -106.5t52 -165.5v-11q-12 -15 -32.5 -26.5t-53.5 -21t-81 -16.5t-116 -11l-293 -20v-57q0 -160 57 -232.5t172 -72.5q47 0 98 9.5t97 22.5t84 27t59 24l22 -51q-38 -25 -85.5 -53 t-102.5 -51t-115 -38t-123 -15q-76 0 -140 23.5t-111.5 76.5t-74.5 138t-27 207zM297 554l378 16q-7 45 -19.5 90.5t-34.5 81t-55 58t-80 22.5q-32 0 -63 -6.5t-56 -23.5q-15 -11 -27.5 -34t-21.5 -55t-15 -70.5t-6 -78.5zM372 1113l293 343l113 -110l-338 -294z" />
<glyph unicode="&#xed;" horiz-adv-x="500" d="M75 1113l293 343l113 -110l-338 -294zM161 0v903h178v-903h-178z" />
<glyph unicode="&#xf3;" horiz-adv-x="1083" d="M104 451q0 109 28 196.5t83.5 148.5t137 94t190.5 33q106 0 188 -31t137.5 -91t83 -147.5t27.5 -199.5q0 -109 -27.5 -196.5t-83 -148.5t-137.5 -93.5t-188 -32.5q-213 0 -326 119.5t-113 348.5zM293 453q0 -99 14 -169t43.5 -115t76.5 -66t113 -21q54 0 93.5 10.5 t79.5 39.5q46 34 62 119.5t16 199.5q0 193 -59 282t-187 89q-53 0 -94.5 -10.5t-78.5 -36.5q-22 -16 -36.5 -48.5t-24.5 -75t-14 -94t-4 -104.5zM378 1113l293 343l113 -110l-338 -294z" />
<glyph unicode="&#xf4;" horiz-adv-x="1083" d="M104 451q0 109 28 196.5t83.5 148.5t137 94t190.5 33q106 0 188 -31t137.5 -91t83 -147.5t27.5 -199.5q0 -109 -27.5 -196.5t-83 -148.5t-137.5 -93.5t-188 -32.5q-213 0 -326 119.5t-113 348.5zM226 1118l257 280h111l258 -280l-64 -63l-249 203l-250 -203zM293 453 q0 -99 14 -169t43.5 -115t76.5 -66t113 -21q54 0 93.5 10.5t79.5 39.5q46 34 62 119.5t16 199.5q0 193 -59 282t-187 89q-53 0 -94.5 -10.5t-78.5 -36.5q-22 -16 -36.5 -48.5t-24.5 -75t-14 -94t-4 -104.5z" />
<glyph unicode="&#xf6;" horiz-adv-x="1083" d="M104 451q0 109 28 196.5t83.5 148.5t137 94t190.5 33q106 0 188 -31t137.5 -91t83 -147.5t27.5 -199.5q0 -109 -27.5 -196.5t-83 -148.5t-137.5 -93.5t-188 -32.5q-213 0 -326 119.5t-113 348.5zM220 1208l124 125l127 -125l-127 -126zM293 453q0 -99 14 -169t43.5 -115 t76.5 -66t113 -21q54 0 93.5 10.5t79.5 39.5q46 34 62 119.5t16 199.5q0 193 -59 282t-187 89q-53 0 -94.5 -10.5t-78.5 -36.5q-22 -16 -36.5 -48.5t-24.5 -75t-14 -94t-4 -104.5zM607 1208l124 125l127 -125l-127 -126z" />
<glyph unicode="&#xfa;" horiz-adv-x="1110" d="M152 247v656h178v-628q0 -32 5.5 -63t22 -55.5t46.5 -40.5t82 -16q33 0 70.5 8t76 20t74 28t64.5 31v716h178v-903h-149l-26 106q-31 -18 -71 -39.5t-87 -40.5t-97 -32.5t-102 -13.5q-58 0 -107 16.5t-84 50.5t-54.5 83.5t-19.5 116.5zM370 1113l293 343l113 -110 l-338 -294z" />
<glyph unicode="&#xfc;" horiz-adv-x="1110" d="M152 247v656h178v-628q0 -32 5.5 -63t22 -55.5t46.5 -40.5t82 -16q33 0 70.5 8t76 20t74 28t64.5 31v716h178v-903h-149l-26 106q-31 -18 -71 -39.5t-87 -40.5t-97 -32.5t-102 -13.5q-58 0 -107 16.5t-84 50.5t-54.5 83.5t-19.5 116.5zM233 1208l124 125l127 -125 l-127 -126zM620 1208l124 125l127 -125l-127 -126z" />
<glyph unicode="&#xfd;" horiz-adv-x="966" d="M-166 -531q12 -2 27 -4t27 -2q39 0 88 24.5t102.5 64.5t107.5 92t103.5 109t92 113t71.5 105q-52 148 -102 277.5t-93.5 233.5t-80.5 180t-62 117q-20 31 -47.5 45t-54.5 14h-14v54q22 7 61.5 14t78.5 7q34 0 66.5 -8.5t51.5 -33.5q29 -35 65 -110t75 -173t79.5 -212.5 t79.5 -228.5h4q49 85 80.5 166.5t49.5 158t24.5 148.5t6.5 140q0 19 -2 39.5t-5.5 38t-7.5 31.5t-6 22l153 36q10 -23 15 -58t5 -72q0 -79 -24.5 -178.5t-65.5 -205t-95 -212.5t-112 -201q-41 -65 -86 -135.5t-94 -139t-101.5 -130.5t-109 -109.5t-115.5 -75.5t-121 -28 q-39 0 -66.5 8t-48.5 23v56zM347 1113l293 343l113 -110l-338 -294z" />
<glyph unicode="&#x104;" horiz-adv-x="1209" d="M7 0l536 1340l158 46l502 -1386h-191l-169 495l-520 -7l-182 -488h-134zM356 583h460l-225 631zM858 -240q0 57 36 121t120 119h104q-56 -41 -87 -92t-31 -122q0 -61 26.5 -87t59.5 -26q31 0 64.5 12.5t65.5 26.5l23 -64q-8 -4 -32 -15.5t-56 -23.5t-67 -21t-64 -9 q-82 0 -122 49t-40 132z" />
<glyph unicode="&#x105;" horiz-adv-x="968" d="M92 230q0 66 19.5 115.5t61.5 83t109.5 50.5t164.5 20l163 5v160q0 75 -30.5 110t-101.5 35q-52 0 -125.5 -19t-145.5 -49l-31 84q42 17 89 35t95.5 32t99 22.5t98.5 8.5q54 0 97 -12t73 -40.5t45 -75.5t15 -115v-432q0 -154 74 -154q36 0 94 16v-57q-43 -23 -93 -44 t-105 -21q-32 0 -54.5 10t-37 26.5t-23.5 36.5t-16 39q-34 -22 -66 -43t-67 -37.5t-74.5 -26.5t-88.5 -10q-111 0 -175 61.5t-64 185.5zM271 255q0 -75 25.5 -115.5t86.5 -40.5q64 0 118.5 14.5t113.5 47.5q0 7 -2.5 76t-2.5 196q-144 0 -218 -18.5t-91 -36.5 q-16 -18 -23 -49.5t-7 -73.5zM572 -240q0 57 36 121t120 119h104q-56 -41 -87 -92t-31 -122q0 -61 26.5 -87t59.5 -26q31 0 64.5 12.5t65.5 26.5l23 -64q-8 -4 -32 -15.5t-56 -23.5t-67 -21t-64 -9q-82 0 -122 49t-40 132z" />
<glyph unicode="&#x106;" horiz-adv-x="1191" d="M125 680q0 193 55.5 324t144.5 212.5t200 116.5t222 35q41 0 91 -3t97.5 -7t89.5 -8.5t65 -9.5l-49 -161q-26 8 -73.5 18.5t-102.5 19t-107.5 14.5t-88.5 6q-79 0 -135.5 -12.5t-105.5 -51.5q-60 -46 -83.5 -174t-23.5 -319q0 -292 85 -443t274 -151q53 0 109.5 4 t112.5 12t110.5 19.5t101.5 27.5v-70q-49 -24 -105 -41.5t-114.5 -30t-118 -19t-115.5 -6.5q-146 0 -247.5 50t-166 141t-93.5 219.5t-29 287.5zM582 1540l293 344l113 -110l-338 -294z" />
<glyph unicode="&#x107;" horiz-adv-x="861" d="M104 428q0 116 29 207.5t85.5 155.5t139.5 98t191 34q65 0 131 -7.5t121 -17.5l-46 -150q-25 12 -59.5 25.5t-70.5 23.5t-71 16.5t-60 6.5q-32 0 -63 -10.5t-61 -37.5q-15 -13 -29 -35.5t-24.5 -61.5t-16.5 -97t-6 -141q0 -95 14.5 -158.5t44.5 -101t74 -53.5t102 -16 q66 0 137.5 16t129.5 42l24 -54q-35 -25 -75 -48.5t-85 -41.5t-94 -28.5t-101 -10.5q-76 0 -142 23.5t-114.5 76.5t-76.5 138t-28 207zM376 1113l293 343l113 -110l-338 -294z" />
<glyph unicode="&#x10c;" horiz-adv-x="1191" d="M125 680q0 193 55.5 324t144.5 212.5t200 116.5t222 35q41 0 91 -3t97.5 -7t89.5 -8.5t65 -9.5l-49 -161q-26 8 -73.5 18.5t-102.5 19t-107.5 14.5t-88.5 6q-79 0 -135.5 -12.5t-105.5 -51.5q-60 -46 -83.5 -174t-23.5 -319q0 -292 85 -443t274 -151q53 0 109.5 4 t112.5 12t110.5 19.5t101.5 27.5v-70q-49 -24 -105 -41.5t-114.5 -30t-118 -19t-115.5 -6.5q-146 0 -247.5 50t-166 141t-93.5 219.5t-29 287.5zM390 1770l63 63l250 -203l249 203l63 -63l-257 -280h-111z" />
<glyph unicode="&#x10d;" horiz-adv-x="861" d="M104 428q0 116 29 207.5t85.5 155.5t139.5 98t191 34q65 0 131 -7.5t121 -17.5l-46 -150q-25 12 -59.5 25.5t-70.5 23.5t-71 16.5t-60 6.5q-32 0 -63 -10.5t-61 -37.5q-15 -13 -29 -35.5t-24.5 -61.5t-16.5 -97t-6 -141q0 -95 14.5 -158.5t44.5 -101t74 -53.5t102 -16 q66 0 137.5 16t129.5 42l24 -54q-35 -25 -75 -48.5t-85 -41.5t-94 -28.5t-101 -10.5q-76 0 -142 23.5t-114.5 76.5t-76.5 138t-28 207zM190 1335l63 63l250 -203l249 203l64 -63l-258 -280h-111z" />
<glyph unicode="&#x10e;" horiz-adv-x="1444" d="M169 11v1330q44 5 100.5 10t118 8t125 5t122.5 2q154 0 280 -39t216 -118t139 -199t49 -281q0 -163 -45 -299.5t-135 -234t-223 -152.5t-310 -55q-118 0 -234 6.5t-203 16.5zM352 99q41 -7 92 -11.5t116 -4.5q128 -1 229.5 20.5t166.5 68.5q31 22 62 61t55 102.5 t39 154.5t15 218q0 157 -46 264.5t-122.5 173.5t-177 94.5t-207.5 28.5q-46 0 -77 -1.5t-55 -3.5t-44 -4.5t-46 -5.5v-1155zM386 1770l63 63l250 -203l249 203l63 -63l-257 -280h-111z" />
<glyph unicode="&#x10f;" horiz-adv-x="1297" d="M79 324q0 88 23.5 158t68 118t108 73.5t143.5 25.5q32 0 70 -4t75 -9q-1 15 -1 30q-1 12 -1 25.5v21.5v359l134 34v-1156h-89l-37 64h-3q-21 -15 -44 -28.5t-47.5 -24.5t-52.5 -17.5t-59 -6.5q-56 0 -108 18t-92 58t-64 104.5t-24 156.5zM222 332q0 -68 13.5 -116 t38.5 -79t60 -45t77 -14t82 8.5t71 21.5v506q-32 5 -61.5 7.5t-63.5 2.5q-48 0 -88.5 -8t-62.5 -26q-11 -10 -22.5 -30t-21.5 -51.5t-16 -75.5t-6 -101zM1059 1152l118 349l147 -65l-181 -318z" />
<glyph unicode="&#x118;" horiz-adv-x="980" d="M169 0v1352h693l-13 -98l-497 -7v-479l468 -5l-13 -86l-455 -10v-563l552 -10l-13 -94h-722zM495 -240q0 57 36 121t120 119h104q-56 -41 -87 -92t-31 -122q0 -61 26.5 -87t59.5 -26q31 0 64.5 12.5t65.5 26.5l23 -64q-8 -4 -32 -15.5t-56 -23.5t-67 -21t-64 -9 q-82 0 -122 49t-40 132z" />
<glyph unicode="&#x119;" horiz-adv-x="962" d="M104 428q0 136 32 231t87.5 153t130.5 84.5t162 26.5q60 0 116.5 -17.5t103.5 -57.5t82 -106.5t52 -165.5v-11q-12 -15 -32.5 -26.5t-53.5 -21t-81 -16.5t-116 -11l-293 -20v-57q0 -160 57 -232.5t172 -72.5q47 0 98 9.5t97 22.5t84 27t59 24l22 -51q-38 -25 -85.5 -53 t-102.5 -51t-115 -38t-123 -15q-76 0 -140 23.5t-111.5 76.5t-74.5 138t-27 207zM297 554l378 16q-7 45 -19.5 90.5t-34.5 81t-55 58t-80 22.5q-32 0 -63 -6.5t-56 -23.5q-15 -11 -27.5 -34t-21.5 -55t-15 -70.5t-6 -78.5zM379 -225q0 57 36 121t120 119h104 q-56 -41 -87 -92t-31 -122q0 -61 26.5 -87t59.5 -26q31 0 64.5 12.5t65.5 26.5l23 -64q-8 -4 -32 -15.5t-56 -23.5t-67 -21t-64 -9q-82 0 -122 49t-40 132z" />
<glyph unicode="&#x11a;" horiz-adv-x="980" d="M169 0v1352h693l-13 -98l-497 -7v-479l468 -5l-13 -86l-455 -10v-563l552 -10l-13 -94h-722zM218 1770l63 63l250 -203l249 203l63 -63l-257 -280h-111z" />
<glyph unicode="&#x11b;" horiz-adv-x="962" d="M104 428q0 136 32 231t87.5 153t130.5 84.5t162 26.5q60 0 116.5 -17.5t103.5 -57.5t82 -106.5t52 -165.5v-11q-12 -15 -32.5 -26.5t-53.5 -21t-81 -16.5t-116 -11l-293 -20v-57q0 -160 57 -232.5t172 -72.5q47 0 98 9.5t97 22.5t84 27t59 24l22 -51q-38 -25 -85.5 -53 t-102.5 -51t-115 -38t-123 -15q-76 0 -140 23.5t-111.5 76.5t-74.5 138t-27 207zM185 1335l63 63l250 -203l249 203l64 -63l-258 -280h-111zM297 554l378 16q-7 45 -19.5 90.5t-34.5 81t-55 58t-80 22.5q-32 0 -63 -6.5t-56 -23.5q-15 -11 -27.5 -34t-21.5 -55t-15 -70.5 t-6 -78.5z" />
<glyph unicode="&#x139;" horiz-adv-x="950" d="M169 0v1352h183v-1249h514l-13 -103h-684zM416 1540l293 344l113 -110l-338 -294z" />
<glyph unicode="&#x13a;" horiz-adv-x="500" d="M139 1668l293 344l113 -110l-338 -294zM161 0v1481l178 45v-1526h-178z" />
<glyph unicode="&#x13d;" horiz-adv-x="950" d="M128 0v1024h139v-946h389l-10 -78h-518zM636 1024l119 349l147 -65l-181 -318z" />
<glyph unicode="&#x13e;" horiz-adv-x="706" d="M122 0v1122l135 34v-1156h-135zM467 1154l119 348l147 -65l-181 -318z" />
<glyph unicode="&#x141;" horiz-adv-x="950" d="M5 527l164 95v730h183v-623l253 147l43 -72l-296 -177v-524h514l-13 -103h-684v520l-119 -69z" />
<glyph unicode="&#x142;" horiz-adv-x="500" d="M-12 623l173 99v759l178 45v-700l136 81l40 -75l-176 -106v-726h-178v623l-128 -75z" />
<glyph unicode="&#x143;" horiz-adv-x="1490" d="M169 0v1361h80l956 -1051h1q-2 139 -3 258q0 50 -1 101.5t-1.5 97t-0.5 81v55.5v447h121v-1357h-83l-954 1054h-4q2 -149 5 -272q1 -53 2 -105t1.5 -95.5t1 -75.5t0.5 -44v-455h-121zM618 1540l293 344l113 -110l-338 -294z" />
<glyph unicode="&#x144;" horiz-adv-x="1110" d="M161 0v903h149l25 -106h3q30 17 70.5 39t86.5 41t96.5 32.5t101.5 13.5q58 0 107 -16.5t84 -50.5t54.5 -83.5t19.5 -116.5v-656h-178v628q0 32 -5 63t-21.5 55.5t-47 40.5t-82.5 16q-33 0 -70.5 -8t-75.5 -20t-74 -28t-65 -32v-715h-178zM437 1113l293 343l113 -110 l-338 -294z" />
<glyph unicode="&#x147;" horiz-adv-x="1490" d="M169 0v1361h80l956 -1051h1q-2 139 -3 258q0 50 -1 101.5t-1.5 97t-0.5 81v55.5v447h121v-1357h-83l-954 1054h-4q2 -149 5 -272q1 -53 2 -105t1.5 -95.5t1 -75.5t0.5 -44v-455h-121zM442 1770l63 63l250 -203l249 203l63 -63l-257 -280h-111z" />
<glyph unicode="&#x148;" horiz-adv-x="1110" d="M161 0v903h149l25 -106h3q30 17 70.5 39t86.5 41t96.5 32.5t101.5 13.5q58 0 107 -16.5t84 -50.5t54.5 -83.5t19.5 -116.5v-656h-178v628q0 32 -5 63t-21.5 55.5t-47 40.5t-82.5 16q-33 0 -70.5 -8t-75.5 -20t-74 -28t-65 -32v-715h-178zM256 1335l63 63l250 -203 l249 203l64 -63l-258 -280h-111z" />
<glyph unicode="&#x154;" horiz-adv-x="1207" d="M169 0v1349q83 7 183.5 11t196.5 4q118 0 205 -25.5t143.5 -73t84.5 -116t28 -155.5q0 -85 -23 -150t-61.5 -114t-90.5 -83.5t-109 -56.5q61 -104 117 -198.5t112.5 -166.5t115 -114t124.5 -42h13v-60q-29 -10 -74 -17t-91 -7q-66 0 -112.5 18t-90.5 67.5t-95.5 136.5 t-126.5 226l-75 137h-191v-570h-183zM352 664h57q124 0 201.5 14.5t118.5 40.5q18 12 34 32t27 51t17 75t6 106q0 78 -22.5 133t-64.5 89t-102 50t-137 16q-38 0 -66 -2t-69 -6v-599zM425 1540l293 344l113 -110l-338 -294z" />
<glyph unicode="&#x155;" horiz-adv-x="682" d="M161 0v903h149l25 -141h2q14 17 30 37.5t32.5 39t35 34t39.5 25.5q36 15 80.5 20t98.5 5l-26 -163q-30 3 -68.5 6.5t-72.5 3.5q-25 0 -43 -5.5t-34.5 -16.5t-32.5 -26.5t-37 -35.5v-686h-178zM260 1113l293 343l113 -110l-338 -294z" />
<glyph unicode="&#x158;" horiz-adv-x="1207" d="M169 0v1349q83 7 183.5 11t196.5 4q118 0 205 -25.5t143.5 -73t84.5 -116t28 -155.5q0 -85 -23 -150t-61.5 -114t-90.5 -83.5t-109 -56.5q61 -104 117 -198.5t112.5 -166.5t115 -114t124.5 -42h13v-60q-29 -10 -74 -17t-91 -7q-66 0 -112.5 18t-90.5 67.5t-95.5 136.5 t-126.5 226l-75 137h-191v-570h-183zM254 1770l63 63l250 -203l249 203l63 -63l-257 -280h-111zM352 664h57q124 0 201.5 14.5t118.5 40.5q18 12 34 32t27 51t17 75t6 106q0 78 -22.5 133t-64.5 89t-102 50t-137 16q-38 0 -66 -2t-69 -6v-599z" />
<glyph unicode="&#x159;" horiz-adv-x="682" d="M58 1335l63 63l250 -203l249 203l64 -63l-258 -280h-111zM161 0v903h149l25 -141h2q14 17 30 37.5t32.5 39t35 34t39.5 25.5q36 15 80.5 20t98.5 5l-26 -163q-30 3 -68.5 6.5t-72.5 3.5q-25 0 -43 -5.5t-34.5 -16.5t-32.5 -26.5t-37 -35.5v-686h-178z" />
<glyph unicode="&#x15a;" horiz-adv-x="999" d="M75 79l66 159q29 -20 70 -42t87.5 -40.5t96 -31t95.5 -12.5q63 0 108.5 12t74.5 29q16 9 30.5 22.5t26 36t18 56t6.5 80.5q0 63 -27 105.5t-72 73t-102 53.5t-115.5 47.5t-115.5 54t-101.5 74t-72 106.5t-27.5 152q0 62 29.5 124.5t84 113.5t134.5 83.5t181 32.5 q82 0 153.5 -9.5t142.5 -23.5l-41 -160q-75 26 -157 45t-153 19q-55 0 -97.5 -7.5t-64.5 -23.5q-24 -19 -41 -54t-17 -106q0 -57 27 -96t71.5 -68t101.5 -52t116.5 -47.5t116 -55.5t101.5 -75.5t72 -108t27 -153.5q0 -77 -30.5 -150t-89 -131t-143.5 -93.5t-195 -35.5 q-115 0 -205.5 26t-169.5 71zM384 1540l293 344l113 -110l-338 -294z" />
<glyph unicode="&#x15b;" horiz-adv-x="798" d="M70 66l53 123q29 -19 62 -36.5t69 -33t74.5 -24.5t79.5 -9q45 0 76.5 6.5t54.5 22.5q21 14 34 41t13 79q0 46 -35.5 75t-89 50t-116.5 42.5t-116 53t-89 79.5t-36 125q0 57 24 97t59 75q45 42 104.5 66.5t130.5 24.5q57 0 120 -7.5t119 -16.5l-26 -131q-26 7 -58 13.5 t-65.5 12t-64.5 8.5t-55 3q-53 0 -82 -6t-45 -18q-14 -10 -21.5 -29t-7.5 -51q0 -42 36 -68.5t90 -47.5t116 -43t116 -54.5t89.5 -80.5t35.5 -123q0 -68 -23 -116t-61 -85q-21 -20 -46 -38.5t-57 -32t-71.5 -21.5t-88.5 -8q-90 0 -163.5 19.5t-138.5 63.5zM272 1113l293 343 l113 -110l-338 -294z" />
<glyph unicode="&#x160;" horiz-adv-x="999" d="M75 79l66 159q29 -20 70 -42t87.5 -40.5t96 -31t95.5 -12.5q63 0 108.5 12t74.5 29q16 9 30.5 22.5t26 36t18 56t6.5 80.5q0 63 -27 105.5t-72 73t-102 53.5t-115.5 47.5t-115.5 54t-101.5 74t-72 106.5t-27.5 152q0 62 29.5 124.5t84 113.5t134.5 83.5t181 32.5 q82 0 153.5 -9.5t142.5 -23.5l-41 -160q-75 26 -157 45t-153 19q-55 0 -97.5 -7.5t-64.5 -23.5q-24 -19 -41 -54t-17 -106q0 -57 27 -96t71.5 -68t101.5 -52t116.5 -47.5t116 -55.5t101.5 -75.5t72 -108t27 -153.5q0 -77 -30.5 -150t-89 -131t-143.5 -93.5t-195 -35.5 q-115 0 -205.5 26t-169.5 71zM215 1770l63 63l250 -203l249 203l63 -63l-257 -280h-111z" />
<glyph unicode="&#x161;" horiz-adv-x="798" d="M70 66l53 123q29 -19 62 -36.5t69 -33t74.5 -24.5t79.5 -9q45 0 76.5 6.5t54.5 22.5q21 14 34 41t13 79q0 46 -35.5 75t-89 50t-116.5 42.5t-116 53t-89 79.5t-36 125q0 57 24 97t59 75q45 42 104.5 66.5t130.5 24.5q57 0 120 -7.5t119 -16.5l-26 -131q-26 7 -58 13.5 t-65.5 12t-64.5 8.5t-55 3q-53 0 -82 -6t-45 -18q-14 -10 -21.5 -29t-7.5 -51q0 -42 36 -68.5t90 -47.5t116 -43t116 -54.5t89.5 -80.5t35.5 -123q0 -68 -23 -116t-61 -85q-21 -20 -46 -38.5t-57 -32t-71.5 -21.5t-88.5 -8q-90 0 -163.5 19.5t-138.5 63.5zM109 1335l63 63 l250 -203l249 203l64 -63l-258 -280h-111z" />
<glyph unicode="&#x164;" horiz-adv-x="1054" d="M20 1254l13 98h1002l-13 -94l-403 -11v-1247h-183v1247zM214 1770l63 63l250 -203l249 203l63 -63l-257 -280h-111z" />
<glyph unicode="&#x165;" horiz-adv-x="715" d="M45 617v39l181 148h27l3 -120h187l-9 -61q-25 -3 -55.5 -5.5t-57.5 -4.5q-32 -3 -64 -4v-445q0 -37 13.5 -61.5t58.5 -24.5q24 0 58 1t62 3v-47q-15 -7 -38.5 -15t-51.5 -15.5t-56 -12.5t-52 -5q-22 0 -45 5.5t-41.5 20.5t-30.5 42.5t-12 71.5v483zM477 1125l118 348 l147 -65l-181 -318z" />
<glyph unicode="&#x16e;" horiz-adv-x="1379" d="M162 458v894h179v-920q0 -102 21.5 -168t63 -105t103.5 -55t144 -16q101 0 178.5 20.5t118.5 63.5q36 38 53 106.5t17 158.5v915h177v-875q0 -102 -35.5 -192t-106 -157t-175 -106.5t-241.5 -39.5q-114 0 -205 25t-156.5 81t-100.5 147t-35 223zM466 1687q0 53 18.5 92.5 t50 64.5t72.5 37.5t86 12.5q44 0 86 -12.5t73.5 -37.5t50 -64.5t18.5 -92.5t-18.5 -92t-50 -64t-73.5 -37.5t-86 -12.5q-45 0 -86 12.5t-72.5 37.5t-50 64t-18.5 92zM567 1687q0 -30 10.5 -50.5t28.5 -34t40.5 -18.5t46.5 -5q25 0 48 5t41 18.5t28.5 34t10.5 50.5 t-10.5 51.5t-28.5 34.5t-41 19t-48 6q-24 0 -46.5 -6t-40.5 -19t-28.5 -34.5t-10.5 -51.5z" />
<glyph unicode="&#x16f;" horiz-adv-x="1110" d="M152 247v656h178v-628q0 -32 5.5 -63t22 -55.5t46.5 -40.5t82 -16q33 0 70.5 8t76 20t74 28t64.5 31v716h178v-903h-149l-26 106q-31 -18 -71 -39.5t-87 -40.5t-97 -32.5t-102 -13.5q-58 0 -107 16.5t-84 50.5t-54.5 83.5t-19.5 116.5zM324 1250q0 53 18.5 92t50 64.5 t72.5 38t86 12.5q44 0 86 -12.5t73.5 -38t50 -64.5t18.5 -92t-18.5 -92t-50 -64t-73.5 -37.5t-86 -12.5q-45 0 -86 12.5t-72.5 37.5t-50 64t-18.5 92zM425 1250q0 -30 10.5 -51.5t28.5 -34.5t40.5 -18.5t46.5 -5.5q25 0 48 5.5t41 18.5t28.5 34.5t10.5 51.5t-10.5 51.5 t-28.5 34.5t-41 19t-48 6q-24 0 -46.5 -6t-40.5 -19t-28.5 -34.5t-10.5 -51.5z" />
<glyph unicode="&#x179;" horiz-adv-x="1259" d="M71 0v92l796 1155h-10q-44 0 -107.5 1t-136 2t-148.5 2.5t-144 3.5t-122 3.5t-83 3.5l12 89h956v-85l-798 -1163q10 0 50 -0.5t97 -1t121.5 -1.5t122.5 -1h100.5h54.5q104 0 170.5 15.5t107.5 38t63.5 47.5t40.5 46l40 -29q-16 -28 -43 -67.5t-68.5 -76t-100.5 -62 t-138 -25.5q-39 0 -112 0.5t-160.5 2.5t-180.5 3.5t-173 3.5t-136 2.5t-71 0.5zM454 1540l293 344l113 -110l-338 -294z" />
<glyph unicode="&#x17a;" horiz-adv-x="851" d="M59 0v55l454 748q-35 0 -93 -1t-119.5 -1.5t-116.5 -2.5t-82 -3l15 93q41 3 114.5 5.5t160 4.5t175 3.5t159.5 1.5v-48l-462 -767q13 -1 37.5 -1.5t51.5 -1.5t53.5 -1h44.5q86 0 145 11t98.5 28t64 38t44.5 44l37 -33q-18 -29 -43 -61.5t-62.5 -60.5t-89.5 -45.5 t-124 -17.5q-58 0 -130 2t-138.5 4.5t-119 4.5t-74.5 2zM277 1113l293 343l113 -110l-338 -294z" />
<glyph unicode="&#x17b;" horiz-adv-x="1259" d="M71 0v92l796 1155h-10q-44 0 -107.5 1t-136 2t-148.5 2.5t-144 3.5t-122 3.5t-83 3.5l12 89h956v-85l-798 -1163q10 0 50 -0.5t97 -1t121.5 -1.5t122.5 -1h100.5h54.5q104 0 170.5 15.5t107.5 38t63.5 47.5t40.5 46l40 -29q-16 -28 -43 -67.5t-68.5 -76t-100.5 -62 t-138 -25.5q-39 0 -112 0.5t-160.5 2.5t-180.5 3.5t-173 3.5t-136 2.5t-71 0.5zM480 1591l124 125l127 -125l-127 -126z" />
<glyph unicode="&#x17c;" horiz-adv-x="851" d="M59 0v55l454 748q-35 0 -93 -1t-119.5 -1.5t-116.5 -2.5t-82 -3l15 93q41 3 114.5 5.5t160 4.5t175 3.5t159.5 1.5v-48l-462 -767q13 -1 37.5 -1.5t51.5 -1.5t53.5 -1h44.5q86 0 145 11t98.5 28t64 38t44.5 44l37 -33q-18 -29 -43 -61.5t-62.5 -60.5t-89.5 -45.5 t-124 -17.5q-58 0 -130 2t-138.5 4.5t-119 4.5t-74.5 2zM301 1188l124 125l127 -125l-127 -125z" />
<glyph unicode="&#x17d;" horiz-adv-x="1259" d="M71 0v92l796 1155h-10q-44 0 -107.5 1t-136 2t-148.5 2.5t-144 3.5t-122 3.5t-83 3.5l12 89h956v-85l-798 -1163q10 0 50 -0.5t97 -1t121.5 -1.5t122.5 -1h100.5h54.5q104 0 170.5 15.5t107.5 38t63.5 47.5t40.5 46l40 -29q-16 -28 -43 -67.5t-68.5 -76t-100.5 -62 t-138 -25.5q-39 0 -112 0.5t-160.5 2.5t-180.5 3.5t-173 3.5t-136 2.5t-71 0.5zM288 1770l63 63l250 -203l249 203l63 -63l-257 -280h-111z" />
<glyph unicode="&#x17e;" horiz-adv-x="851" d="M59 0v55l454 748q-35 0 -93 -1t-119.5 -1.5t-116.5 -2.5t-82 -3l15 93q41 3 114.5 5.5t160 4.5t175 3.5t159.5 1.5v-48l-462 -767q13 -1 37.5 -1.5t51.5 -1.5t53.5 -1h44.5q86 0 145 11t98.5 28t64 38t44.5 44l37 -33q-18 -29 -43 -61.5t-62.5 -60.5t-89.5 -45.5 t-124 -17.5q-58 0 -130 2t-138.5 4.5t-119 4.5t-74.5 2zM123 1335l63 63l250 -203l249 203l64 -63l-258 -280h-111z" />
<glyph unicode="&#x2c6;" horiz-adv-x="741" d="M58 1118l257 280h111l258 -280l-64 -63l-249 203l-250 -203z" />
<glyph unicode="&#x2da;" horiz-adv-x="604" d="M77 1250q0 53 18.5 92t50 64.5t72.5 38t86 12.5q44 0 86 -12.5t73.5 -38t50 -64.5t18.5 -92t-18.5 -92t-50 -64t-73.5 -37.5t-86 -12.5q-45 0 -86 12.5t-72.5 37.5t-50 64t-18.5 92zM178 1250q0 -30 10.5 -51.5t28.5 -34.5t40.5 -18.5t46.5 -5.5q25 0 48 5.5t41 18.5 t28.5 34.5t10.5 51.5t-10.5 51.5t-28.5 34.5t-41 19t-48 6q-24 0 -46.5 -6t-40.5 -19t-28.5 -34.5t-10.5 -51.5z" />
<glyph unicode="&#x2dc;" horiz-adv-x="766" d="M44 1081q18 103 67 149t129 46q40 0 80 -15.5t79 -35t73.5 -35t62.5 -15.5q29 0 47.5 9t30 23.5t19 32t11.5 31.5l80 -16q-18 -103 -68 -149.5t-132 -46.5q-44 0 -83.5 15.5t-76 35t-70 35t-63.5 15.5q-29 0 -47.5 -8.5t-30.5 -21.5t-18.5 -31t-10.5 -35z" />
<glyph unicode="&#x2000;" horiz-adv-x="1006" />
<glyph unicode="&#x2001;" horiz-adv-x="2012" />
<glyph unicode="&#x2002;" horiz-adv-x="1006" />
<glyph unicode="&#x2003;" horiz-adv-x="2012" />
<glyph unicode="&#x2004;" horiz-adv-x="670" />
<glyph unicode="&#x2005;" horiz-adv-x="503" />
<glyph unicode="&#x2006;" horiz-adv-x="335" />
<glyph unicode="&#x2007;" horiz-adv-x="335" />
<glyph unicode="&#x2008;" horiz-adv-x="251" />
<glyph unicode="&#x2009;" horiz-adv-x="402" />
<glyph unicode="&#x200a;" horiz-adv-x="111" />
<glyph unicode="&#x2010;" horiz-adv-x="644" d="M66 405l13 140h499l-13 -140h-499z" />
<glyph unicode="&#x2011;" horiz-adv-x="644" d="M66 405l13 140h499l-13 -140h-499z" />
<glyph unicode="&#x2012;" horiz-adv-x="644" d="M66 405l13 140h499l-13 -140h-499z" />
<glyph unicode="&#x2013;" horiz-adv-x="1370" d="M66 418l13 114h1226l-13 -114h-1226z" />
<glyph unicode="&#x2014;" horiz-adv-x="2703" d="M66 418l13 114h2560l-14 -114h-2559z" />
<glyph unicode="&#x2018;" horiz-adv-x="396" d="M40 1077l239 424l77 -29l-159 -457z" />
<glyph unicode="&#x2019;" horiz-adv-x="396" d="M40 1044l159 457l157 -62l-239 -424z" />
<glyph unicode="&#x201a;" horiz-adv-x="396" d="M40 -214l159 457l157 -62l-239 -424z" />
<glyph unicode="&#x201c;" horiz-adv-x="747" d="M40 1077l239 424l77 -29l-159 -457zM391 1077l239 424l78 -29l-160 -457z" />
<glyph unicode="&#x201d;" horiz-adv-x="747" d="M40 1044l159 457l157 -62l-239 -424zM391 1044l159 457l158 -62l-239 -424z" />
<glyph unicode="&#x201e;" horiz-adv-x="747" d="M40 -214l159 457l157 -62l-239 -424zM391 -214l159 457l158 -62l-239 -424z" />
<glyph unicode="&#x2022;" horiz-adv-x="789" d="M141 638q0 52 20 98.5t54 80.5t80.5 54t99.5 20q52 0 98.5 -20t81 -54t54 -80.5t19.5 -98.5q0 -53 -19.5 -99.5t-54 -80.5t-81 -54t-98.5 -20q-53 0 -99.5 20t-80.5 54t-54 80.5t-20 99.5z" />
<glyph unicode="&#x2026;" horiz-adv-x="1326" d="M95 98l125 125l127 -125l-127 -126zM537 98l126 125l126 -125l-126 -126zM979 98l126 125l127 -125l-127 -126z" />
<glyph unicode="&#x202f;" horiz-adv-x="402" />
<glyph unicode="&#x2039;" horiz-adv-x="538" d="M79 446l293 407l86 -65l-247 -317l248 -288l-99 -87z" />
<glyph unicode="&#x203a;" horiz-adv-x="538" d="M79 764l99 87l281 -349l-293 -407l-85 65l246 317z" />
<glyph unicode="&#x205f;" horiz-adv-x="503" />
<glyph unicode="&#x20ac;" horiz-adv-x="1087" d="M67 451l14 102h117q-4 59 -4 127v33.5t1 32.5h-128l14 101h124q21 144 73.5 244t125.5 161t158 88.5t169 27.5q36 0 79 -3t84.5 -7t76.5 -8.5t56 -9.5l-41 -161q-21 8 -60.5 18.5t-85 19t-89 14.5t-73.5 6q-66 0 -112.5 -12.5t-87.5 -51.5q-38 -35 -58 -118t-27 -208h382 l-13 -101h-373v-66v-66t3 -61h383l-13 -102h-359q23 -180 92.5 -272.5t193.5 -92.5q44 0 91.5 4.5t95 12.5t92 20t83.5 26v-70q-43 -24 -91 -41.5t-99.5 -30t-103 -19t-98.5 -6.5q-102 0 -179 32t-132 93.5t-89.5 148t-49.5 195.5h-142z" />
<glyph unicode="&#x2122;" horiz-adv-x="1601" d="M51 1290l7 62h521l-6 -60l-202 -5v-611h-111v611zM622 676l70 678h80l280 -542l271 542h80l75 -678h-110l-55 501l-252 -501h-62l-260 507l-43 -507h-74z" />
<glyph unicode="&#x25fc;" horiz-adv-x="910" d="M0 0v911h911v-911h-911z" />
</font>
</defs>
</svg>
